<svg width="30" height="30" viewBox="0 0 30 30" fill="none" xmlns="http://www.w3.org/2000/svg">
<g clip-path="url(#clip0_275_774)">
<path d="M26.25 1.875C27.2856 1.875 28.125 2.71447 28.125 3.75V26.25C28.125 27.2856 27.2856 28.125 26.25 28.125H3.75C2.71447 28.125 1.875 27.2856 1.875 26.25V3.75C1.875 2.71447 2.71447 1.875 3.75 1.875H26.25ZM3.75 0C1.67893 0 0 1.67893 0 3.75V26.25C0 28.3211 1.67893 30 3.75 30H26.25C28.3211 30 30 28.3211 30 26.25V3.75C30 1.67893 28.3211 0 26.25 0H3.75Z" fill="#258c93"/>
<path d="M8.7121 8.7121C9.07821 8.34597 9.6718 8.34597 10.0379 8.7121L15 13.6742L19.962 8.7121C20.3282 8.34597 20.9218 8.34597 21.288 8.7121C21.654 9.07821 21.654 9.6718 21.288 10.0379L16.3258 15L21.288 19.962C21.654 20.3282 21.654 20.9218 21.288 21.288C20.9218 21.654 20.3282 21.654 19.962 21.288L15 16.3258L10.0379 21.288C9.6718 21.654 9.07821 21.654 8.7121 21.288C8.34597 20.9218 8.34597 20.3282 8.7121 19.962L13.6742 15L8.7121 10.0379C8.34597 9.6718 8.34597 9.07821 8.7121 8.7121Z" fill="#258c93"/>
</g>
<defs>
<clipPath id="clip0_275_774">
<rect width="30" height="30" fill="white"/>
</clipPath>
</defs>
</svg>
