<svg width="150" height="26" viewBox="0 0 150 26" fill="none" xmlns="http://www.w3.org/2000/svg">
<path d="M13.41 0L16.4208 8.98278H26.1637L18.2815 14.5344L21.2923 23.5172L13.41 17.9656L5.52781 23.5172L8.53855 14.5344L0.656334 8.98278H10.3993L13.41 0Z" fill="#FFC042"/>
<path d="M44.2059 0L47.2167 8.98278H56.9596L49.0774 14.5344L52.0882 23.5172L44.2059 17.9656L36.3237 23.5172L39.3345 14.5344L31.4522 8.98278H41.1952L44.2059 0Z" fill="#FFC042"/>
<path d="M74.9999 0L78.0106 8.98278H87.7536L79.8714 14.5344L82.8821 23.5172L74.9999 17.9656L67.1177 23.5172L70.1284 14.5344L62.2462 8.98278H71.9891L74.9999 0Z" fill="#FFC042"/>
<path d="M105.795 0L108.806 8.98278H118.548L110.666 14.5344L113.677 23.5172L105.795 17.9656L97.9126 23.5172L100.923 14.5344L93.0411 8.98278H102.784L105.795 0Z" fill="#FFC042"/>
<path d="M136.59 0L139.6 8.98278H149.343L141.461 14.5344L144.472 23.5172L136.59 17.9656L128.708 23.5172L131.718 14.5344L123.836 8.98278H133.579L136.59 0Z" fill="#D0CFD4"/>
</svg>
