<svg xmlns="http://www.w3.org/2000/svg" version="1.1" xmlns:xlink="http://www.w3.org/1999/xlink" xmlns:svgjs="http://svgjs.dev/svgjs" width="2000" height="2250" viewBox="0 0 2000 2250"><g transform="matrix(1,0,0,1,0,0)"><svg viewBox="0 0 320 360" data-background-color="#ffffff" preserveAspectRatio="xMidYMid meet" height="2250" width="2000" xmlns="http://www.w3.org/2000/svg" xmlns:xlink="http://www.w3.org/1999/xlink"><g id="tight-bounds" transform="matrix(1,0,0,1,0,0)"><svg viewBox="0 0 320 360" height="360" width="320"><g><svg></svg></g><g><svg viewBox="0 0 320 360" height="360" width="320"><g><path xmlns="http://www.w3.org/2000/svg" d="M219.58 41.008c0.707 0 6.365 2.829 9.547 3.89-1.061 0.354-3.536-0.707-6.365-1.768 0.707 0 2.122 0.354 3.536 1.06-0.707-0.707-6.011-2.475-6.718-3.182M166.895 30.047c1.061-0.354 13.436 1.414 19.094 1.768 0.354-0.354-0.707-0.354-2.122-0.707 1.768-0.354 5.304 0.707 7.779 1.06-7.425 0.354-15.558-1.768-22.629-1.06-2.475 0-0.707-0.707-2.122-1.061M156.641 30.047c6.365 0 11.315 0 2.121 0.707-1.061-0.354-2.475-0.354-2.121-0.707M256.707 59.395c0.707 0 3.536 3.182 4.95 4.243-0.354 0.354-3.182-2.475-4.596-3.536 0.354 0.354 0 0-0.354-0.707M249.635 54.798c-2.829-2.475-3.889-2.475-4.243-3.889 2.475 1.414 4.243 2.829 4.243 3.889M204.022 32.522c0.354-0.354 1.061 0.354 2.829 0.707-2.122-0.354-1.768 0-1.061 0.707-2.475-0.354-3.182-0.707-2.475-1.414 1.414 0.707 1.768 0.354 0.707 0M103.602 36.765c0-0.354 1.414-1.061 2.475-1.414-1.061 0.707-0.707 1.061 1.061 0.353 0 0.354-2.122 1.061-3.536 1.768 0.707-0.354 1.414-1.414 0-0.707M211.094 28.986c-1.061 0.354-4.95-1.768-8.84-2.475-2.122-0.707 8.486 1.768 8.84 2.475M2.475 203.66c2.122 8.84 0.707 8.486 0 0M2.829 150.621c0.354-1.414 0.707-5.304 1.06-4.95-1.061 8.486-2.829 12.376-3.182 18.74 1.061-5.657-0.354 3.182-0.707 5.304 0.354 2.829 0.354-1.768 1.061-1.06 0.707 1.061-1.414 15.912-0.707 7.779-0.707 7.425 0 15.558 1.414 17.679-1.768 11.315 7.072 36.773 8.84 42.077 0.354 0.354 0-1.768 0.707-0.353 0.707 4.597 3.889 7.779 4.95 12.729 1.061 1.414 5.304 9.193 6.011 10.962 1.414 2.829 2.122 2.475 3.536 5.303 4.243 8.133 10.961 15.912 17.326 23.337 20.508 24.044 51.978 43.845 86.984 50.918 35.006 7.425 71.779 2.122 100.419-11.669 1.768-1.061 1.414-1.414 3.536-2.122 9.901-3.182 21.923-13.436 28.641-17.326 3.182-3.536 11.669-9.547 12.73-13.082 6.011-4.95 12.022-13.083 15.204-18.387 1.768-2.829 3.182-2.829 3.889-4.597-0.354 0 5.657-7.425 7.426-11.668-0.707 0-1.768 2.122-1.768 0 12.729-24.398 19.801-57.282 15.911-79.912 0.707 27.934-6.365 59.05-19.801 78.851-6.011 12.729-18.387 26.519-29.701 36.42-1.768 1.768-3.536 3.889-5.658 5.304-6.718 5.657-14.144 10.254-21.922 14.497-18.387 10.254-38.895 19.094-62.94 19.447 41.37-3.536 78.497-24.398 99.006-49.856-15.558 15.204-22.276 21.215-39.602 30.055-1.414 2.475-13.083 7.425-20.862 9.547 4.597-2.122 14.144-5.657 17.326-8.486-25.812 12.376-54.453 19.448-81.326 15.558 10.254 0 24.751 0.354 38.541-2.121 2.122-0.707 3.182-1.414 5.658-1.768 26.873-6.011 52.685-19.094 71.072-37.481-10.608 9.547-26.519 20.862-36.774 24.398 9.547-5.304 26.873-15.558 32.53-23.337-11.315 11.315-32.53 22.63-45.966 27.58-2.122 0.354 1.414-1.414-2.122 0-4.243 1.061-2.475 1.061-3.536 1.768-16.265 4.597-35.006 8.486-50.563 7.072-2.829-0.354-3.889-1.061-6.365-1.061-2.829-0.354-5.304-0.354-8.486-0.354-12.376-1.414-25.812-6.365-35.713-10.607-5.304-2.475-10.608-4.243-15.912-7.426-4.243-2.475-7.779-5.304-11.314-8.132-13.436-9.901-24.751-19.801-35.36-33.945-19.094-26.519-28.994-59.757-27.58-92.641 1.414-32.884 14.497-65.061 35.359-88.752-1.061 1.061 1.414-2.475 3.536-4.596 0 0.707-0.354 1.768 2.122-0.707 2.122-2.475-0.707-0.707 0.353-2.122 21.923-24.044 60.111-43.492 99.36-44.199 1.414-1.061 3.889-2.475 6.718-1.768 0 0.354-1.768 0.354-1.768 0.354 3.889-0.354 7.425-0.354 9.193 0.353 0.354-0.354-1.414-0.707 0-0.707 2.475 0.707 3.182 0 4.597 0.707-1.061 0-2.122 0-2.829 0.354 8.84 0 14.497 2.122 23.337 2.829-4.597-1.061-5.657-1.061-9.193-2.122 3.889 0.707 5.657 1.414 7.425 1.061-0.707 0-0.354-1.061 0.354-0.707 7.072 1.768 7.779 2.475 15.204 4.95 0.707-0.707-3.182-1.061-4.243-2.122 7.072 2.475 13.436 4.243 17.68 7.072-1.414-1.061-5.657-2.475-8.84-3.889-0.354 0.354 1.061 0.707 1.414 1.414-3.536-1.768-8.486-3.536-13.436-4.243 4.243 1.061 7.072 2.475 8.84 3.182-3.889-0.707-8.84-3.182-14.498-4.243 9.193 2.829 26.519 9.193 37.127 14.851-3.889-2.475-8.486-4.243-10.961-5.657 2.122 0.354 4.597 1.768 4.597 1.06 2.475 1.061 5.657 3.536 7.425 3.89-3.182-2.122-9.547-5.304-11.668-6.365 26.519 12.022 50.21 32.177 65.414 57.989 1.414 2.475 3.536 8.133 5.304 8.84-0.354-1.768-1.768-2.829-3.182-5.657 0.707 0 0.707-1.061 0-2.122-1.414-1.768 0 1.414-1.415-0.354-6.365-11.669-14.144-21.923-26.165-33.237 6.718 6.365 1.768 1.768 0.353-0.354 9.193 8.133 19.801 21.923 24.398 28.995-0.707-1.061-1.061-1.768-0.707-1.768 8.486 14.497 13.79 27.58 19.094 46.32 0.354 0.354 0-1.414 0.707-0.353 3.536 14.851 4.597 27.227 4.243 38.541 2.829-19.094-3.536-48.796-14.851-72.133-1.414-2.829-1.414-0.707-2.829-3.889 0-1.061-1.061-3.182-1.768-4.597-14.144-23.337-31.47-39.956-51.978-53.038 1.414 0.707 4.243 2.829 4.244 2.475-38.188-25.105-82.387-28.641-118.807-20.862-2.475 1.061-3.536 2.122-6.365 3.536 5.304-1.768 8.486-2.122 13.437-3.183 1.061-1.061-4.597 0.354-2.122-0.707 0.354 0.354 4.95-0.707 6.011-0.353 0 0.354-1.414 0.707-1.768 1.06 11.669-2.475 23.691-2.829 33.945-2.121-6.011 0.354-16.972-0.707-20.508 1.061 3.536-0.354 8.486-0.707 11.668-0.354-4.243 0-12.022 0.354-15.558 0.707-0.354-0.354 5.657-1.061 1.768-1.06-1.768 0.354-4.597 0.354-5.657 1.414-30.409 2.829-60.111 18.74-80.973 37.481-4.243 3.536-9.193 7.425-12.375 11.314-7.779 8.84-12.729 17.68-18.387 25.459 3.536-7.425 11.315-18.74 20.508-28.287 9.193-9.547 19.094-17.68 24.398-21.923 0 1.414 8.486-5.304 11.669-7.425-2.122 1.768 1.414-0.707 2.121-0.354 11.315-6.718 20.508-9.193 30.763-13.083-2.475 0.707-4.597 1.414-4.951 1.061 2.475-0.707 3.889-1.414 3.536-1.768-9.901 2.829-25.459 9.547-37.834 16.972 22.276-15.204 50.564-24.398 78.497-24.751 27.934-0.707 55.16 6.365 76.729 17.68 14.497 6.365 28.287 18.033 39.249 29.348 3.182 2.829 0.707-0.707 5.304 4.243-1.414-0.707-2.475-1.414-0.707 0.707 2.829 3.182-0.707-2.475 3.889 3.182-0.354 0-1.768-1.768-1.768-1.061 12.376 10.961 21.923 30.762 27.58 43.846-1.414-5.304-4.95-12.729-7.779-18.033 8.486 15.558 11.315 24.751 14.851 38.541 1.414 1.061-0.707-4.95 0.707-2.121 0.354 2.122 0.707 8.84 2.122 9.9-1.061-6.718-2.829-14.851-4.243-16.265 1.061 0.707-1.768-8.133-3.536-10.254-0.707-5.657-5.657-15.558-9.901-22.984-15.204-29.702-42.431-54.099-72.839-67.536 0-0.707-1.768-1.414-2.476-2.121-30.055-12.729-66.122-16.265-100.773-8.133-35.006 8.486-67.889 28.641-91.227 57.636 1.061-3.536 9.901-10.254 10.255-13.083-10.254 10.961-21.215 25.459-28.641 41.016-7.779 15.558-12.022 31.47-13.79 43.138" fill="#729343" fill-rule="nonzero" stroke="none" stroke-width="1" stroke-linecap="butt" stroke-linejoin="miter" stroke-miterlimit="10" stroke-dasharray="" stroke-dashoffset="0" font-family="none" font-weight="none" font-size="none" text-anchor="none" style="mix-blend-mode: normal" data-fill-palette-color="tertiary"></path></g><g transform="matrix(1,0,0,1,48,90)"><svg viewBox="0 0 224 180" height="180" width="224"><g><svg viewBox="0 0 224 180" height="180" width="224"><g><svg viewBox="0 0 224 180" height="180" width="224"><g><svg viewBox="0 0 224 180" height="180" width="224"><g><svg viewBox="0 0 224 180" height="180" width="224"><g transform="matrix(1,0,0,1,87.60522432558564,26.36038969321072)"><svg viewBox="0 0 48.78955134882873 127.27922061357856" height="127.27922061357856" width="48.78955134882873"><g><svg xmlns="http://www.w3.org/2000/svg" xmlns:xlink="http://www.w3.org/1999/xlink" version="1.1" x="0" y="0" viewBox="20.792009353637695 1 24.532922744750977 64" style="enable-background:new 0 0 66 66;" xml:space="preserve" height="127.27922061357856" width="48.78955134882873" class="icon-o-0" data-fill-palette-color="accent" id="o-0"><g fill="#84aa4c" data-fill-palette-color="accent"><g fill="#84aa4c" data-fill-palette-color="accent"><g fill="#84aa4c" data-fill-palette-color="accent"><path d="M41.8 27.6c5.7 9.4 1.7 15.1 1.5 15.3-0.1 0.1-0.3 0.3-0.4 0.3-2.9 1.2-5.8 1.8-8.7 1.9v8.5c0.5 1.1 3.5 6.7 7.4 8.4 0.5 0.2 0.7 0.8 0.5 1.3-0.2 0.4-0.7 0.7-1.3 0.5-2.8-1.2-5.1-4-6.6-6.2V64c0 0.6-0.5 1-1 1s-1-0.4-1-1v-6.5c-1.5 2.3-3.8 5.1-6.7 6.4-0.6 0.2-1.1-0.1-1.3-0.5-0.2-0.5 0-1.1 0.5-1.3 4.3-1.9 7.5-8.5 7.5-8.6 0 0 0 0 0 0v-8.3c-2.9-0.1-5.9-0.8-8.8-1.9-0.2-0.1-0.3-0.2-0.5-0.4-0.2-0.2-3.7-5.6 1.5-15.2 1.5-2.9 0.9-6.2-1.8-10-0.2-0.2-2.5-5.5-1.6-7.5 0.2-0.5 0.7-0.8 1.3-0.9 1.9-0.2 4.9-1 5.4-2.2 0.1-0.2 0.2-1.3 0.2-2.1 0-0.7 0.8-1.2 1.4-0.9C30.2 4.6 31.1 4.9 32 5V2c0-0.5 0.5-1 1-1 0.6 0 1 0.5 1 1v3c1-0.1 1.9-0.4 2.9-0.9 0.6-0.3 1.4 0.1 1.4 0.8 0.1 1.1 0.3 2.4 0.5 2.7 0.6 0.8 3.5 1.5 5.2 1.7 0.5 0 1 0.4 1.2 0.9 0.8 1.9-2.5 7.5-2.6 7.5C40 20.8 39.7 24.3 41.8 27.6z" fill="#84aa4c" data-fill-palette-color="accent"></path></g></g></g></svg></g></svg></g><path d="M46.543 48.726V48.726C46.672 48.78 46.871 48.857 47.139 48.956 47.414 49.058 47.675 49.158 47.923 49.255 48.167 49.344 48.439 49.452 48.74 49.579 49.036 49.698 49.299 49.819 49.528 49.945 49.756 50.071 49.966 50.207 50.157 50.352 50.345 50.49 50.475 50.635 50.547 50.788 50.62 50.942 50.625 51.092 50.563 51.239V51.239L48.493 56.129C48.078 56.358 47.019 56.112 45.316 55.392V55.392C44.691 55.127 43.941 54.806 43.068 54.429 42.194 54.053 41.573 53.786 41.205 53.631V53.631L40.452 53.312C40.384 53.283 40.259 53.238 40.076 53.175 39.89 53.103 39.749 53.043 39.653 52.996V52.996C40.567 53.722 41.901 54.702 43.655 55.935 45.412 57.163 46.581 57.993 47.163 58.428V58.428C47.334 58.587 47.297 58.957 47.05 59.539V59.539L45.444 63.336C45.247 63.801 45.009 64.022 44.73 63.998V63.998L39.809 63.13C39.316 63.03 38.799 62.93 38.256 62.83 37.719 62.733 37.102 62.627 36.406 62.514 35.713 62.394 35.2 62.307 34.869 62.253V62.253C37.125 63.309 38.853 64.091 40.054 64.599V64.599L41.938 65.396C42.784 65.754 43.424 66.018 43.858 66.187V66.187C43.993 66.295 44.037 66.404 43.991 66.514V66.514L43.563 67.525C43.384 67.948 43.128 68.57 42.796 69.39 42.457 70.207 42.198 70.828 42.019 71.25V71.25C41.856 71.636 41.71 71.802 41.581 71.748V71.748L25.66 65.011C25.599 64.985 25.552 64.944 25.518 64.886 25.488 64.837 25.472 64.773 25.47 64.692 25.474 64.614 25.484 64.539 25.501 64.467 25.514 64.4 25.539 64.317 25.574 64.216 25.618 64.112 25.65 64.028 25.67 63.964 25.692 63.894 25.727 63.811 25.775 63.716 25.823 63.62 25.853 63.557 25.866 63.527V63.527L26.403 62.258C27.264 60.224 27.898 58.801 28.306 57.991 28.714 57.181 29.011 56.556 29.197 56.114V56.114C30.232 56.35 31.772 56.68 33.818 57.105V57.105L38.429 58.092 30.485 52.714C30.485 52.714 30.507 52.687 30.551 52.634 30.587 52.584 30.611 52.544 30.624 52.513V52.513C30.948 51.747 31.413 50.614 32.018 49.115 32.633 47.612 33.102 46.477 33.426 45.711V45.711L34.099 44.121C34.203 43.927 34.445 43.91 34.825 44.071V44.071C41.82 46.85 45.727 48.402 46.543 48.726ZM47.15 40.719V40.719L46.22 39.829C45.491 39.021 44.938 38.165 44.56 37.261 44.187 36.351 43.989 35.466 43.965 34.605 43.946 33.74 44.058 32.871 44.303 32 44.552 31.133 44.908 30.318 45.371 29.555 45.839 28.787 46.395 28.066 47.039 27.393V27.393C47.393 27.023 47.79 26.666 48.229 26.322 48.678 25.978 49.184 25.647 49.746 25.329 50.309 25.01 50.917 24.769 51.573 24.603 52.233 24.443 52.867 24.396 53.476 24.463V24.463C54.682 24.558 55.778 24.838 56.763 25.3 57.747 25.763 58.694 26.43 59.602 27.299V27.299C61.515 29.092 62.641 30.966 62.981 32.921V32.921L63.134 33.772C63.273 34.531 63.202 35.356 62.92 36.247 62.644 37.143 62.271 37.947 61.802 38.658 61.338 39.375 60.811 40.04 60.222 40.656V40.656C59.532 41.377 58.821 41.976 58.088 42.454 57.36 42.926 56.659 43.264 55.985 43.467 55.317 43.675 54.639 43.782 53.952 43.788 53.266 43.803 52.619 43.732 52.013 43.576 51.412 43.425 50.812 43.201 50.213 42.903 49.618 42.601 49.071 42.272 48.574 41.916 48.081 41.555 47.607 41.156 47.15 40.719ZM50.228 30.831V30.831C50.007 31.062 49.862 31.319 49.793 31.603 49.724 31.887 49.709 32.158 49.748 32.416 49.791 32.679 49.901 32.973 50.078 33.298 50.25 33.629 50.421 33.912 50.591 34.148 50.756 34.38 50.983 34.657 51.273 34.98 51.567 35.298 51.796 35.541 51.959 35.706 52.128 35.877 52.347 36.091 52.616 36.348V36.348C52.876 36.597 53.13 36.822 53.379 37.023 53.633 37.22 53.922 37.414 54.246 37.604 54.566 37.79 54.872 37.922 55.166 38 55.459 38.079 55.758 38.093 56.063 38.044 56.368 37.985 56.64 37.845 56.88 37.624V37.624C57.119 37.374 57.287 37.116 57.385 36.85 57.487 36.579 57.538 36.319 57.537 36.07 57.532 35.816 57.464 35.545 57.336 35.256 57.212 34.962 57.074 34.697 56.923 34.46 56.772 34.223 56.561 33.953 56.291 33.648 56.025 33.348 55.791 33.092 55.589 32.88 55.382 32.673 55.12 32.417 54.803 32.114V32.114C54.567 31.888 54.341 31.686 54.126 31.508 53.91 31.329 53.661 31.137 53.379 30.931 53.101 30.73 52.832 30.578 52.571 30.476 52.305 30.378 52.035 30.304 51.761 30.254 51.492 30.208 51.224 30.233 50.958 30.328 50.697 30.428 50.453 30.596 50.228 30.831ZM71.084 30.533L70.494 30.534 67.988 25.898C67.061 24.213 65.372 20.955 62.918 16.124V16.124L62.463 15.281C62.38 15.129 62.359 15.027 62.399 14.975V14.975L69.449 11.163C69.52 11.125 69.796 11.308 70.28 11.712 70.772 12.119 71.387 12.649 72.126 13.301 72.862 13.962 73.373 14.412 73.661 14.65V14.65L77.128 17.62 74.982 13.652C74.795 13.306 74.464 12.673 73.988 11.75 73.515 10.833 73.133 10.12 72.843 9.612V9.612C72.742 9.424 73.238 9.035 74.333 8.443V8.443C74.672 8.259 75.144 8.012 75.747 7.701 76.344 7.393 76.713 7.201 76.854 7.125V7.125L77.627 6.707C77.738 6.647 77.804 6.638 77.827 6.679V6.679C78.896 8.559 80.387 11.266 82.298 14.802V14.802L86.144 21.913C86.192 22.114 86.02 22.321 85.628 22.533V22.533L85.364 22.675C85.007 22.868 84.489 23.156 83.811 23.538 83.13 23.929 82.611 24.221 82.254 24.414V24.414L79.242 26.042C79.129 26.058 78.698 25.735 77.947 25.074V25.074C77.147 24.35 75.969 23.311 74.413 21.959 72.866 20.609 72.001 19.855 71.817 19.697V19.697C72.036 20.101 72.359 20.706 72.786 21.511 73.205 22.313 73.524 22.916 73.742 23.32V23.32C73.904 23.619 74.156 24.065 74.5 24.658 74.837 25.254 75.087 25.702 75.248 26.001V26.001L75.946 27.291C76.117 27.607 76.065 27.84 75.79 27.988V27.988ZM77.841 6.705L77.817 6.661ZM92.145 19.849V19.849L92.061 19.418C91.805 18.112 91.444 16.183 90.978 13.63 90.513 11.083 90.153 9.157 89.897 7.851V7.851L88.97 3.12 102.272 0.515 103.006 4.266C103.01 4.286 103.021 4.341 103.039 4.433 103.057 4.524 103.069 4.586 103.076 4.619 103.082 4.651 103.09 4.707 103.098 4.787 103.101 4.868 103.098 4.926 103.092 4.961 103.079 4.998 103.058 5.046 103.029 5.106 103.007 5.171 102.977 5.221 102.936 5.256 102.894 5.285 102.836 5.317 102.761 5.351 102.693 5.385 102.614 5.411 102.522 5.429V5.429L102.199 5.492C100.227 5.878 98.422 6.201 96.785 6.461V6.461C96.795 6.581 96.808 6.772 96.826 7.033 96.843 7.294 96.861 7.524 96.88 7.724 96.898 7.924 96.926 8.115 96.961 8.298V8.298L102.398 7.233C102.626 7.188 102.785 7.188 102.875 7.231 102.96 7.282 103.016 7.376 103.042 7.514V7.514C103.049 7.546 103.057 7.606 103.067 7.692 103.077 7.778 103.086 7.841 103.094 7.88V7.88C103.166 8.246 103.285 8.785 103.452 9.498 103.611 10.206 103.726 10.743 103.797 11.109V11.109C103.809 11.269 103.762 11.36 103.657 11.38V11.38C103.612 11.389 103.573 11.38 103.54 11.352V11.352C101.155 11.948 99.384 12.359 98.229 12.586V12.586L97.925 12.645 98.247 14.291C98.926 14.158 99.903 13.933 101.176 13.615 102.445 13.306 103.399 13.089 104.039 12.963V12.963C104.542 12.865 104.853 12.916 104.974 13.116V13.116L105.143 13.978C105.214 14.343 105.327 14.884 105.481 15.6 105.641 16.314 105.757 16.854 105.829 17.22V17.22C105.903 17.599 105.786 17.818 105.479 17.878V17.878C105.081 17.956 104.47 18.073 103.646 18.227 102.822 18.382 102.198 18.501 101.773 18.584V18.584C100.676 18.799 99.111 19.132 97.077 19.585 95.051 20.043 93.582 20.365 92.669 20.55V20.55L92.275 20.251C92.2 20.042 92.157 19.908 92.145 19.849ZM130.007 2.379V2.379C129.417 3.301 128.326 4.954 126.735 7.339 125.144 9.723 123.935 11.588 123.107 12.934V12.934L122.509 18.722C122.455 18.85 122.396 18.941 122.33 18.995 122.258 19.041 122.15 19.056 122.004 19.041V19.041C121.282 18.967 120.203 18.865 118.764 18.737 117.333 18.602 116.234 18.495 115.466 18.416V18.416C115.217 18.109 115.111 17.77 115.15 17.4V17.4C115.201 17.231 115.24 17.041 115.269 16.83 115.298 16.612 115.326 16.338 115.354 16.006 115.381 15.674 115.4 15.462 115.41 15.37V15.37L115.496 14.536C115.687 12.689 115.471 10.988 114.849 9.432V9.432C114.761 9.182 114.665 8.918 114.56 8.639 114.462 8.361 114.369 8.094 114.281 7.838 114.188 7.581 114.095 7.317 114.002 7.046 113.902 6.782 113.806 6.514 113.714 6.244 113.621 5.98 113.527 5.716 113.434 5.452 113.347 5.196 113.251 4.928 113.146 4.65 113.047 4.379 112.95 4.118 112.856 3.867V3.867L111.214 0.336C111.224 0.237 111.313 0.153 111.481 0.083 111.655 0.014 111.825-0.012 111.99 0.005V0.005L114.909 0.307C115.306 0.348 115.908 0.413 116.715 0.503 117.522 0.593 118.124 0.659 118.521 0.7V0.7C118.625 0.731 118.732 0.856 118.844 1.075 118.954 1.3 119.061 1.595 119.163 1.961 119.272 2.333 119.375 2.725 119.473 3.136 119.571 3.548 119.665 3.999 119.755 4.49 119.844 4.988 119.919 5.423 119.981 5.798 120.05 6.166 120.118 6.548 120.184 6.943 120.251 7.331 120.292 7.583 120.306 7.698V7.698L123.132 1.136 129.664 1.812C129.769 1.836 129.844 1.887 129.889 1.965 129.941 2.044 129.981 2.182 130.007 2.379ZM161.44 28.45V28.45C160.711 29.368 159.908 30.079 159.03 30.583 158.143 31.089 157.231 31.383 156.293 31.465 155.36 31.542 154.409 31.452 153.441 31.194 152.476 30.93 151.511 30.498 150.545 29.896V29.896C149.653 29.34 148.898 28.733 148.281 28.075 147.661 27.422 147.2 26.778 146.897 26.143 146.593 25.499 146.39 24.824 146.289 24.118 146.188 23.412 146.174 22.741 146.249 22.106 146.323 21.47 146.471 20.817 146.692 20.148 146.913 19.478 147.157 18.873 147.422 18.333 147.69 17.802 147.995 17.263 148.336 16.715V16.715L148.874 15.851C149.538 14.924 150.301 14.196 151.163 13.667 152.026 13.138 152.877 12.809 153.717 12.682 154.551 12.551 155.419 12.547 156.322 12.67 157.222 12.799 158.044 13.009 158.787 13.3 159.528 13.596 160.226 13.949 160.881 14.357V14.357C161.943 15.018 162.803 15.726 163.462 16.481 164.117 17.242 164.557 18.014 164.782 18.797 165.008 19.58 165.083 20.36 165.007 21.136 164.923 21.914 164.689 22.698 164.308 23.487V23.487L163.717 24.436C163.586 24.645 162.796 24.297 161.344 23.393V23.393C161.005 23.182 160.534 22.881 159.931 22.49 159.332 22.093 158.936 21.835 158.744 21.715V21.715C158.71 21.694 158.66 21.667 158.595 21.634 158.52 21.603 158.465 21.577 158.432 21.556V21.556C158.262 21.45 158.176 21.299 158.174 21.101 158.175 20.898 158.225 20.686 158.323 20.465 158.421 20.244 158.511 20.018 158.593 19.787 158.68 19.559 158.7 19.332 158.652 19.106 158.604 18.881 158.462 18.694 158.225 18.546 157.987 18.399 157.754 18.308 157.524 18.275 157.299 18.245 157.083 18.278 156.873 18.375 156.66 18.478 156.467 18.593 156.294 18.72 156.117 18.853 155.93 19.046 155.733 19.299 155.527 19.555 155.363 19.774 155.241 19.957 155.114 20.137 154.949 20.383 154.746 20.695 154.547 21.003 154.396 21.226 154.293 21.366V21.366C154.244 21.445 154.149 21.585 154.007 21.787 153.866 21.989 153.753 22.158 153.669 22.294V22.294C152.649 23.932 152.559 25.044 153.401 25.631V25.631C153.638 25.779 153.886 25.815 154.144 25.741 154.396 25.663 154.618 25.534 154.808 25.355 154.994 25.181 155.196 25.001 155.414 24.815 155.635 24.624 155.815 24.512 155.952 24.48V24.48L161.332 27.83C161.536 27.981 161.572 28.188 161.44 28.45ZM160.863 36.024V36.024C162.535 35.255 164.264 34.508 166.05 33.783 167.827 33.057 169.971 32.211 172.483 31.245 174.999 30.284 176.733 29.611 177.685 29.225V29.225C177.867 29.195 177.979 29.184 178.021 29.192V29.192L179.273 30.696C179.567 31.049 180.007 31.561 180.592 32.234 181.173 32.91 181.61 33.425 181.904 33.778V33.778L183.156 35.281C183.233 35.373 183.294 35.447 183.341 35.504 183.387 35.569 183.439 35.647 183.497 35.738 183.554 35.837 183.594 35.921 183.616 35.989 183.629 36.057 183.627 36.127 183.611 36.202 183.589 36.28 183.545 36.347 183.479 36.402V36.402L173.845 51.411C173.722 51.514 173.604 51.538 173.491 51.485 173.372 51.437 173.215 51.295 173.019 51.06V51.06L172.33 50.231C172.134 49.996 171.838 49.645 171.441 49.179 171.04 48.708 170.741 48.355 170.545 48.119V48.119C170.486 48.048 170.359 47.906 170.166 47.695 169.977 47.489 169.821 47.307 169.698 47.149 169.575 47.001 169.446 46.831 169.313 46.639 169.175 46.442 169.087 46.269 169.048 46.119 169.006 45.964 169.013 45.837 169.069 45.738V45.738L169.66 45.246C169.91 44.934 170.099 44.599 170.226 44.242 170.353 43.885 170.346 43.622 170.206 43.454V43.454L167.645 40.378 165.353 41.494C165.159 41.552 164.81 41.279 164.308 40.676V40.676L163.708 39.955C163.495 39.699 163.17 39.324 162.733 38.831 162.291 38.342 161.964 37.969 161.751 37.714V37.714L161.54 37.46C161.459 37.363 161.331 37.215 161.156 37.014 160.98 36.814 160.846 36.658 160.752 36.545V36.545C160.755 36.456 160.793 36.282 160.863 36.024ZM175.167 35.842L171.467 37.715 171.25 38.312 171.741 38.902C172.142 39.383 172.534 39.797 172.918 40.144 173.311 40.491 173.569 40.614 173.692 40.512V40.512L177.882 35.062C177.793 34.955 177.471 34.98 176.918 35.137 176.356 35.293 175.772 35.528 175.167 35.842ZM175.795 55.847L175.853 55.261 180.717 53.233C182.487 52.481 185.899 51.128 190.952 49.173V49.173L191.837 48.804C191.996 48.738 192.1 48.727 192.148 48.772V48.772L195.231 56.17C195.262 56.244 195.051 56.501 194.601 56.941 194.146 57.39 193.557 57.949 192.834 58.618 192.102 59.283 191.603 59.747 191.338 60.009V60.009L188.034 63.16 192.198 61.424C192.56 61.273 193.224 61.007 194.19 60.626 195.15 60.248 195.897 59.94 196.433 59.703V59.703C196.629 59.621 196.967 60.154 197.446 61.302V61.302C197.594 61.659 197.793 62.153 198.042 62.784 198.288 63.41 198.442 63.796 198.503 63.944V63.944L198.841 64.754C198.89 64.871 198.892 64.938 198.849 64.956V64.956C196.871 65.831 194.027 67.042 190.318 68.588V68.588L182.855 71.698C182.65 71.726 182.462 71.534 182.291 71.122V71.122L182.176 70.846C182.019 70.471 181.785 69.927 181.474 69.214 181.153 68.496 180.915 67.951 180.759 67.576V67.576L179.442 64.416C179.438 64.302 179.802 63.905 180.535 63.225V63.225C181.336 62.502 182.488 61.434 183.99 60.022 185.489 58.619 186.326 57.834 186.501 57.667V57.667C186.078 57.844 185.444 58.105 184.6 58.449 183.759 58.785 183.127 59.041 182.703 59.218V59.218C182.39 59.348 181.921 59.555 181.296 59.837 180.669 60.113 180.198 60.316 179.885 60.447V60.447L178.531 61.011C178.199 61.149 177.973 61.074 177.853 60.785V60.785ZM198.822 64.968L198.868 64.949ZM40.228 136.089V136.089C40.099 136.143 39.904 136.237 39.642 136.369 39.378 136.496 39.124 136.614 38.882 136.724 38.645 136.832 38.379 136.952 38.081 137.085 37.783 137.219 37.51 137.324 37.261 137.4 37.009 137.471 36.765 137.527 36.53 137.569 36.301 137.609 36.106 137.601 35.945 137.546 35.785 137.491 35.672 137.387 35.607 137.234V137.234L33.527 132.327C33.651 131.869 34.571 131.277 36.287 130.55V130.55C36.911 130.285 37.663 129.97 38.542 129.605 39.427 129.237 40.056 128.974 40.43 128.816V128.816L41.183 128.496C41.244 128.47 41.364 128.412 41.543 128.322 41.724 128.238 41.865 128.178 41.966 128.143V128.143C40.802 128.296 39.164 128.575 37.052 128.979 34.939 129.383 33.521 129.644 32.798 129.763V129.763C32.565 129.775 32.324 129.487 32.074 128.899V128.899L30.458 125.085C30.26 124.62 30.267 124.295 30.479 124.112V124.112L34.545 121.174C34.966 120.887 35.401 120.584 35.85 120.263 36.297 119.936 36.805 119.566 37.374 119.151 37.94 118.73 38.357 118.42 38.626 118.219V118.219C36.293 119.107 34.522 119.807 33.316 120.318V120.318L31.422 121.121C30.577 121.479 29.941 121.76 29.514 121.962V121.962C29.342 121.984 29.232 121.937 29.183 121.821V121.821L28.754 120.81C28.575 120.387 28.305 119.768 27.945 118.952 27.591 118.134 27.324 117.513 27.145 117.091V117.091C26.981 116.705 26.964 116.485 27.093 116.43V116.43L43.073 109.656C43.141 109.628 43.205 109.618 43.267 109.628 43.326 109.647 43.382 109.685 43.435 109.742 43.488 109.799 43.536 109.854 43.581 109.907 43.622 109.969 43.666 110.048 43.714 110.144 43.758 110.248 43.796 110.329 43.828 110.388 43.856 110.455 43.891 110.538 43.933 110.636 43.971 110.743 43.995 110.808 44.006 110.833V110.833L44.547 112.11C45.414 114.157 45.997 115.608 46.295 116.464 46.596 117.327 46.84 117.979 47.027 118.42V118.42C46.137 118.999 44.822 119.878 43.082 121.057V121.057L39.146 123.69 48.581 121.729C48.581 121.729 48.583 121.76 48.588 121.823 48.602 121.89 48.614 121.935 48.624 121.96V121.96C48.952 122.732 49.443 123.864 50.097 125.357 50.758 126.848 51.251 127.976 51.575 128.742V128.742L52.249 130.332C52.31 130.544 52.151 130.731 51.771 130.892V130.892C44.885 133.999 41.037 135.731 40.228 136.089ZM48.542 140.012V140.012L49.471 139.121C50.315 138.423 51.201 137.906 52.131 137.568 53.051 137.23 53.946 137.068 54.816 137.082 55.682 137.1 56.547 137.253 57.411 137.54 58.276 137.826 59.082 138.22 59.829 138.721 60.571 139.216 61.267 139.803 61.916 140.48V140.48C62.271 140.85 62.612 141.265 62.941 141.724 63.266 142.187 63.577 142.709 63.875 143.289 64.168 143.875 64.383 144.498 64.52 145.16 64.652 145.826 64.671 146.462 64.578 147.067V147.067C64.43 148.278 64.103 149.365 63.598 150.329 63.088 151.297 62.376 152.218 61.463 153.093V153.093C59.579 154.935 57.651 155.986 55.678 156.245V156.245L54.815 156.353C54.05 156.46 53.226 156.355 52.344 156.04 51.456 155.719 50.665 155.312 49.97 154.817 49.27 154.317 48.623 153.758 48.029 153.138V153.138C47.334 152.412 46.766 151.671 46.326 150.913 45.885 150.165 45.576 149.448 45.397 148.762 45.214 148.08 45.135 147.396 45.159 146.709 45.178 146.018 45.279 145.373 45.461 144.774 45.643 144.176 45.896 143.584 46.219 142.998 46.542 142.411 46.895 141.875 47.277 141.389 47.659 140.913 48.08 140.454 48.542 140.012ZM58.328 143.531V143.531C58.107 143.301 57.857 143.145 57.576 143.063 57.295 142.982 57.023 142.957 56.759 142.989 56.499 143.017 56.198 143.112 55.856 143.274 55.523 143.436 55.233 143.595 54.985 143.749 54.741 143.909 54.452 144.126 54.117 144.401 53.786 144.681 53.534 144.9 53.361 145.056 53.189 145.222 52.968 145.433 52.698 145.691V145.691C52.439 145.94 52.201 146.187 51.984 146.431 51.767 146.676 51.559 146.954 51.359 147.265 51.159 147.586 51.012 147.888 50.916 148.173 50.825 148.463 50.8 148.764 50.84 149.075 50.881 149.387 51.011 149.667 51.232 149.917V149.917C51.467 150.162 51.717 150.341 51.983 150.455 52.249 150.569 52.506 150.631 52.755 150.641 53.009 150.646 53.283 150.591 53.578 150.475 53.881 150.359 54.155 150.231 54.398 150.09 54.641 149.949 54.92 149.751 55.236 149.494 55.557 149.242 55.825 149.017 56.041 148.819 56.257 148.621 56.524 148.371 56.841 148.067V148.067C57.081 147.837 57.295 147.618 57.483 147.41 57.671 147.202 57.874 146.962 58.092 146.689 58.304 146.42 58.468 146.158 58.581 145.901 58.695 145.636 58.781 145.369 58.838 145.102 58.896 144.826 58.883 144.552 58.799 144.282 58.711 144.017 58.554 143.767 58.328 143.531ZM63.353 165.847L63.037 165.359 65.55 160.704C66.452 158.991 68.261 155.774 70.975 151.054V151.054L71.43 150.211C71.512 150.058 71.586 149.985 71.651 149.99V149.99L78.73 153.811C78.801 153.849 78.801 154.185 78.73 154.82 78.654 155.452 78.544 156.258 78.4 157.239 78.256 158.22 78.162 158.899 78.117 159.276V159.276L77.532 163.826 79.69 159.83C79.876 159.484 80.222 158.858 80.726 157.951 81.24 157.041 81.632 156.33 81.901 155.817V155.817C82.005 155.624 82.608 155.824 83.708 156.419V156.419C84.048 156.602 84.513 156.861 85.104 157.195 85.695 157.529 86.061 157.734 86.202 157.81V157.81L86.983 158.232C87.089 158.288 87.13 158.337 87.108 158.378V158.378C86.125 160.313 84.674 163.057 82.755 166.611V166.611L78.896 173.761C78.748 173.908 78.479 173.875 78.086 173.664V173.664L77.823 173.521C77.466 173.329 76.938 173.052 76.241 172.69 75.535 172.332 75.003 172.056 74.646 171.863V171.863L71.624 170.233C71.544 170.144 71.579 169.603 71.729 168.61V168.61C71.89 167.541 72.112 165.981 72.393 163.933 72.675 161.885 72.831 160.74 72.863 160.5V160.5C72.645 160.904 72.315 161.509 71.873 162.313 71.434 163.112 71.105 163.714 70.887 164.118V164.118C70.726 164.417 70.487 164.874 70.17 165.489 69.856 166.098 69.618 166.552 69.457 166.851V166.851L68.756 168.151C68.585 168.467 68.362 168.551 68.087 168.402V168.402ZM87.094 158.405L87.118 158.361ZM89.331 176.714V176.714L89.417 176.273C89.672 174.967 90.066 173.037 90.599 170.483 91.123 167.935 91.513 166.008 91.769 164.702V164.702L92.698 159.941 106.06 162.551 105.323 166.322C105.32 166.342 105.309 166.397 105.291 166.489 105.273 166.58 105.261 166.642 105.255 166.675 105.248 166.707 105.234 166.762 105.212 166.839 105.19 166.917 105.166 166.97 105.141 166.998 105.115 167.027 105.08 167.068 105.035 167.12 104.993 167.166 104.946 167.198 104.895 167.215 104.845 167.225 104.779 167.233 104.697 167.237 104.615 167.241 104.528 167.235 104.437 167.217V167.217L104.114 167.154C102.135 166.767 100.335 166.385 98.714 166.007V166.007C98.676 166.129 98.613 166.313 98.524 166.56 98.442 166.809 98.372 167.029 98.314 167.221 98.256 167.413 98.209 167.6 98.174 167.783V167.783L103.64 168.851C103.868 168.896 104.016 168.955 104.083 169.029 104.148 169.11 104.168 169.219 104.141 169.356V169.356C104.133 169.395 104.118 169.456 104.095 169.54 104.065 169.622 104.047 169.68 104.041 169.712V169.712C103.968 170.085 103.875 170.633 103.761 171.356 103.64 172.078 103.544 172.622 103.472 172.988V172.988C103.422 173.141 103.348 173.208 103.25 173.188V173.188C103.204 173.18 103.168 173.156 103.142 173.117V173.117C100.702 172.769 98.897 172.481 97.728 172.252V172.252L97.434 172.195 97.111 173.85C97.79 173.983 98.782 174.143 100.088 174.33 101.386 174.523 102.358 174.682 103.005 174.808V174.808C103.508 174.907 103.777 175.071 103.814 175.302V175.302L103.643 176.174C103.572 176.54 103.473 177.083 103.345 177.804 103.218 178.525 103.119 179.068 103.047 179.434V179.434C102.972 179.819 102.784 179.982 102.484 179.924V179.924C102.085 179.846 101.472 179.723 100.644 179.554 99.816 179.386 99.19 179.26 98.765 179.177V179.177C97.661 178.961 96.079 178.683 94.017 178.341 91.956 177.993 90.464 177.735 89.54 177.568V177.568L89.299 177.135C89.309 176.913 89.319 176.773 89.331 176.714ZM128.177 161.249V161.249C127.788 162.273 127.057 164.121 125.983 166.795 124.909 169.469 124.101 171.549 123.56 173.037V173.037L124.164 178.855C124.144 178.99 124.105 179.092 124.045 179.158 123.991 179.224 123.892 179.264 123.746 179.279V179.279C123.012 179.356 121.927 179.475 120.492 179.637 119.057 179.799 117.956 179.92 117.188 180V180C116.875 179.752 116.699 179.442 116.66 179.071V179.071C116.675 178.896 116.675 178.699 116.659 178.479 116.643 178.26 116.614 177.986 116.573 177.655 116.533 177.325 116.507 177.11 116.497 177.011V177.011L116.41 176.177C116.218 174.324 115.657 172.696 114.729 171.294V171.294C114.585 171.068 114.437 170.83 114.284 170.578 114.13 170.326 113.982 170.084 113.837 169.852 113.698 169.612 113.553 169.369 113.4 169.124 113.248 168.886 113.099 168.644 112.954 168.398 112.808 168.152 112.662 167.913 112.518 167.681 112.379 167.441 112.23 167.199 112.071 166.954 111.918 166.703 111.766 166.461 111.615 166.229V166.229L109.283 163.099C109.273 163 109.342 162.899 109.492 162.797 109.649 162.693 109.81 162.633 109.975 162.616V162.616L112.904 162.312C113.308 162.27 113.914 162.211 114.722 162.133 115.537 162.056 116.142 161.996 116.54 161.955V161.955C116.648 161.964 116.778 162.064 116.932 162.255 117.086 162.453 117.252 162.724 117.428 163.067 117.61 163.409 117.792 163.772 117.972 164.154 118.153 164.544 118.338 164.969 118.526 165.431 118.722 165.899 118.888 166.31 119.025 166.664 119.169 167.017 119.313 167.377 119.458 167.743 119.604 168.116 119.696 168.357 119.734 168.467V168.467L121.162 161.435 127.724 160.754C127.831 160.756 127.918 160.791 127.986 160.857 128.046 160.925 128.11 161.055 128.177 161.249ZM163.1 156.237V156.237C163.606 157.302 163.89 158.344 163.952 159.363 164.014 160.383 163.875 161.331 163.536 162.209 163.19 163.089 162.686 163.909 162.021 164.667 161.359 165.417 160.544 166.092 159.578 166.693V166.693C158.674 167.255 157.791 167.668 156.928 167.93 156.068 168.199 155.279 168.329 154.561 168.321 153.852 168.316 153.157 168.2 152.475 167.973 151.797 167.753 151.188 167.466 150.647 167.113 150.109 166.765 149.587 166.342 149.081 165.842 148.572 165.351 148.136 164.866 147.775 164.386 147.408 163.909 147.053 163.396 146.712 162.848V162.848L146.169 161.975C145.636 160.967 145.321 159.956 145.223 158.943 145.129 157.936 145.209 157.025 145.462 156.209 145.714 155.393 146.097 154.611 146.61 153.86 147.125 153.101 147.677 152.452 148.267 151.913 148.865 151.376 149.495 150.902 150.156 150.491V150.491C151.218 149.83 152.238 149.372 153.215 149.116 154.193 148.861 155.083 148.805 155.885 148.948 156.693 149.088 157.427 149.368 158.088 149.787 158.754 150.203 159.357 150.757 159.897 151.448V151.448L160.493 152.405C160.623 152.614 159.959 153.172 158.501 154.079V154.079C158.157 154.294 157.676 154.585 157.059 154.953 156.436 155.325 156.028 155.571 155.836 155.691V155.691C155.808 155.708 155.762 155.741 155.698 155.789 155.633 155.836 155.584 155.871 155.55 155.892V155.892C155.381 155.997 155.207 156.008 155.029 155.923 154.85 155.838 154.682 155.699 154.524 155.508 154.369 155.322 154.206 155.142 154.034 154.966 153.859 154.785 153.659 154.667 153.436 154.61 153.212 154.553 152.982 154.598 152.745 154.746 152.507 154.893 152.323 155.063 152.191 155.255 152.065 155.443 152.002 155.655 152 155.891 151.998 156.127 152.016 156.351 152.053 156.563 152.094 156.78 152.182 157.035 152.317 157.327 152.461 157.622 152.586 157.866 152.69 158.059 152.799 158.258 152.946 158.515 153.134 158.829 153.325 159.149 153.464 159.384 153.55 159.535V159.535C153.599 159.614 153.683 159.761 153.802 159.978 153.918 160.203 154.017 160.38 154.098 160.51V160.51C155.124 162.16 156.089 162.735 156.993 162.235V162.235C157.23 162.088 157.373 161.882 157.42 161.617 157.463 161.347 157.448 161.09 157.375 160.846 157.298 160.596 157.224 160.333 157.153 160.055 157.079 159.772 157.058 159.562 157.09 159.425V159.425L162.497 156.061C162.722 155.944 162.923 156.003 163.1 156.237ZM172.818 156.075V156.075C171.755 154.565 170.703 152.995 169.662 151.365 168.621 149.735 167.395 147.766 165.986 145.456 164.581 143.15 163.603 141.56 163.051 140.684V140.684C162.988 140.51 162.954 140.404 162.951 140.367V140.367L164.21 138.856C164.504 138.504 164.931 137.976 165.491 137.273 166.055 136.575 166.485 136.049 166.779 135.696V135.696L168.038 134.186C168.114 134.094 168.179 134.022 168.231 133.97 168.282 133.909 168.349 133.843 168.433 133.774 168.515 133.696 168.591 133.642 168.659 133.612 168.722 133.578 168.794 133.564 168.875 133.571 168.951 133.574 169.022 133.603 169.088 133.658V133.658L185.665 140.458C185.788 140.56 185.833 140.672 185.802 140.793 185.775 140.918 185.662 141.101 185.462 141.341V141.341L184.772 142.169C184.571 142.409 184.278 142.767 183.891 143.241 183.5 143.721 183.204 144.081 183.004 144.321V144.321C182.944 144.393 182.83 144.54 182.662 144.763 182.489 144.992 182.338 145.178 182.209 145.322 182.081 145.475 181.933 145.637 181.764 145.809 181.6 145.975 181.445 146.093 181.3 146.162 181.156 146.232 181.029 146.249 180.922 146.211V146.211L180.324 145.713C179.981 145.522 179.617 145.396 179.234 145.337 178.86 145.276 178.603 145.33 178.462 145.499V145.499L175.887 148.589 177.406 150.648C177.494 150.833 177.286 151.228 176.784 151.831V151.831L176.183 152.552C175.97 152.807 175.658 153.197 175.247 153.721 174.846 154.244 174.537 154.636 174.32 154.897V154.897L174.109 155.15C174.032 155.242 173.909 155.395 173.739 155.608 173.574 155.817 173.444 155.978 173.351 156.09V156.09C173.262 156.103 173.085 156.098 172.818 156.075ZM170.042 141.976L172.562 145.298 173.194 145.396 173.687 144.806C174.087 144.326 174.425 143.862 174.701 143.417 174.972 142.967 175.046 142.691 174.924 142.589V142.589L168.784 139.433C168.694 139.54 168.775 139.854 169.025 140.375 169.281 140.9 169.62 141.434 170.042 141.976ZM190.794 132.537L190.34 132.899 185.459 130.861C183.664 130.133 180.284 128.654 175.317 126.422V126.422L174.433 126.053C174.273 125.986 174.193 125.92 174.191 125.854V125.854L177.29 118.431C177.321 118.357 177.656 118.324 178.295 118.331 178.931 118.344 179.744 118.373 180.735 118.419 181.725 118.465 182.41 118.491 182.789 118.498V118.498L187.375 118.628 183.184 116.878C182.822 116.727 182.164 116.445 181.212 116.033 180.255 115.612 179.509 115.293 178.972 115.077V115.077C178.769 114.992 178.909 114.372 179.391 113.218V113.218C179.54 112.862 179.751 112.373 180.024 111.752 180.298 111.131 180.466 110.747 180.527 110.599V110.599L180.87 109.779C180.916 109.669 180.96 109.623 181.003 109.641V109.641C183.026 110.427 185.9 111.598 189.628 113.154V113.154L197.125 116.284C197.286 116.417 197.281 116.688 197.109 117.1V117.1L196.994 117.376C196.837 117.751 196.614 118.303 196.324 119.033 196.037 119.771 195.816 120.327 195.659 120.702V120.702L194.337 123.87C194.256 123.959 193.715 123.978 192.712 123.928V123.928C191.631 123.873 190.058 123.808 187.992 123.731 185.925 123.654 184.771 123.612 184.529 123.605V123.605C184.953 123.782 185.587 124.05 186.432 124.41 187.271 124.767 187.902 125.034 188.326 125.211V125.211C188.639 125.342 189.117 125.535 189.761 125.789 190.398 126.041 190.874 126.232 191.187 126.363V126.363L192.55 126.932C192.882 127.07 192.987 127.284 192.867 127.572V127.572ZM181.031 109.652L180.985 109.633ZM24.259 91.016C24.259 87.208 27.345 84.122 31.152 84.122 34.959 84.122 38.046 87.208 38.046 91.016 38.046 94.823 34.959 97.909 31.152 97.909 27.345 97.909 24.259 94.823 24.259 91.016ZM185.954 91.016C185.954 87.208 189.041 84.122 192.848 84.122 196.655 84.122 199.741 87.208 199.741 91.016 199.741 94.823 196.655 97.909 192.848 97.909 189.041 97.909 185.954 94.823 185.954 91.016Z" fill="#729343" data-fill-palette-color="primary"></path></svg></g></svg></g></svg></g></svg></g></svg></g></svg></g><defs></defs></svg><rect width="320" height="360" fill="none" stroke="none" visibility="hidden"></rect></g></svg></g></svg>