<svg width="57" height="57" viewBox="0 0 57 57" fill="none" xmlns="http://www.w3.org/2000/svg">
<g clip-path="url(#clip0_58_101)">
<path d="M20.7773 40.7903C20.4413 40.7903 20.1053 40.6617 19.848 40.407L2.21592 22.7723C0.168424 20.7248 0.168424 17.3937 2.21592 15.3462C4.26867 13.2987 7.59717 13.3039 9.63943 15.3462L25.4183 31.125C25.9301 31.6369 25.9301 32.469 25.4183 32.9809C24.9064 33.4928 24.0743 33.4928 23.5624 32.9809L7.78355 17.202C6.76505 16.1835 5.1008 16.1809 4.0718 17.202C3.5783 17.6982 3.30267 18.357 3.30267 19.0579C3.30267 19.7614 3.57567 20.4203 4.0718 20.9164L21.7065 38.5485C22.2184 39.0604 22.2184 39.8925 21.7065 40.4044C21.4493 40.6617 21.1133 40.7903 20.7773 40.7903Z" fill="black"/>
<path d="M30.0594 27.7965C29.7234 27.7965 29.3874 27.6678 29.1301 27.4132L11.498 9.77846C10.4716 8.75208 8.81002 8.75208 7.78365 9.77846C7.29015 10.2746 7.01453 10.9335 7.01453 11.6343C7.01453 12.3352 7.28752 12.9941 7.78365 13.4902L9.63952 15.3461C10.1514 15.858 10.1514 16.6901 9.63952 17.202C9.12765 17.7138 8.29552 17.7138 7.78365 17.202L5.92778 15.3461C4.93553 14.3538 4.38953 13.0361 4.38953 11.6343C4.38953 10.2326 4.93553 8.91483 5.92778 7.92258C7.90965 5.9407 11.3668 5.93545 13.3539 7.92258L30.986 25.5573C31.4979 26.0692 31.4979 26.9013 30.986 27.4132C30.7288 27.6705 30.3954 27.7965 30.0594 27.7965Z" fill="black"/>
<path d="M35.6296 22.2289C35.2936 22.2289 34.9576 22.1002 34.7004 21.8456L20.7774 7.92261C19.751 6.89624 18.092 6.89624 17.0656 7.92261C16.0419 8.94636 16.0419 10.6106 17.0656 11.6344C17.5775 12.1462 17.5775 12.9784 17.0656 13.4902C16.5537 14.0021 15.7216 14.0021 15.2097 13.4902C13.1649 11.4454 13.1649 8.11161 15.2097 6.06674C17.2546 4.02186 20.5884 4.02186 22.6332 6.06674L36.5562 19.9897C37.0681 20.5016 37.0681 21.3337 36.5562 21.8456C36.3016 22.1002 35.9656 22.2289 35.6296 22.2289Z" fill="black"/>
<path d="M34.1963 56.4667C33.3116 56.4667 32.4165 56.367 31.5293 56.1648L9.42679 51.0986C8.47129 50.8991 7.58142 50.4108 6.85692 49.6863C5.86467 48.6941 5.31604 47.3737 5.31604 45.9746C5.31604 44.5728 5.86467 43.2551 6.85692 42.2628C7.53942 41.5803 8.36892 41.1105 9.26404 40.8926C9.29029 40.8821 9.31654 40.8768 9.34279 40.8689L20.4728 38.1993C21.1789 38.0234 21.8876 38.4671 22.0556 39.1706C22.2236 39.8767 21.7879 40.5828 21.0844 40.7534L10.0305 43.4047C9.99642 43.4152 9.96229 43.4257 9.92554 43.4336C9.48454 43.5307 9.06454 43.7696 8.71279 44.1213C8.21667 44.6175 7.94104 45.2763 7.94104 45.9772C7.94104 46.6781 8.21404 47.3369 8.71279 47.8331C9.06192 48.1822 9.49504 48.429 9.93079 48.5261C9.94917 48.5287 9.96492 48.5313 9.98067 48.5366L32.1173 53.6107C35.2226 54.3221 38.4173 53.4033 40.6669 51.1511L51.4084 40.4069C53.1435 38.6718 54.099 36.3644 54.099 33.9101C54.099 31.4557 53.1435 29.1509 51.4084 27.4132L28.206 4.21082C27.1796 3.18445 25.5206 3.18445 24.4943 4.21082C23.4705 5.23457 23.4705 6.89882 24.4943 7.92257C25.0061 8.43445 25.0061 9.26657 24.4943 9.77845C23.9824 10.2903 23.1503 10.2903 22.6384 9.77845C20.5935 7.73357 20.5935 4.39982 22.6384 2.35495C24.6833 0.310069 28.017 0.310069 30.0619 2.35495L53.2643 25.5573C55.4981 27.7886 56.724 30.7522 56.724 33.9101C56.724 37.068 55.4955 40.0316 53.2643 42.2628L42.5228 53.007C40.2705 55.2513 37.2885 56.4667 34.1963 56.4667Z" fill="black"/>
</g>
<defs>
<clipPath id="clip0_58_101">
<rect width="57" height="57" fill="white"/>
</clipPath>
</defs>
</svg>
