<svg width="62" height="62" viewBox="0 0 62 62" fill="none" xmlns="http://www.w3.org/2000/svg">
<g filter="url(#filter0_d_473_67)">
<circle cx="31" cy="31" r="20" fill="white"/>
</g>
<path fill-rule="evenodd" clip-rule="evenodd" d="M34.9588 30.7288C35.2638 31.0339 35.2638 31.5286 34.9588 31.8337L30.2712 36.5213C30.1247 36.6677 29.926 36.75 29.7188 36.75C29.5116 36.75 29.3128 36.6677 29.1663 36.5213L26.8226 34.1775C26.5175 33.8723 26.5175 33.3777 26.8226 33.0726C27.1277 32.7675 27.6223 32.7675 27.9274 33.0726L29.7188 34.8639L33.8538 30.7288C34.1589 30.4237 34.6536 30.4237 34.9588 30.7288Z" fill="#3C4151"/>
<path d="M30.5 19.5625C32.6574 19.5625 34.4062 21.3114 34.4062 23.4688V24.25H26.5938V23.4688C26.5938 21.3114 28.3426 19.5625 30.5 19.5625ZM35.9688 24.25V23.4688C35.9688 20.4484 33.5203 18 30.5 18C27.4797 18 25.0312 20.4484 25.0312 23.4688V24.25H19.5625V39.875C19.5625 41.6009 20.9616 43 22.6875 43H38.3125C40.0384 43 41.4375 41.6009 41.4375 39.875V24.25H35.9688ZM21.125 25.8125H39.875V39.875C39.875 40.738 39.1755 41.4375 38.3125 41.4375H22.6875C21.8246 41.4375 21.125 40.738 21.125 39.875V25.8125Z" fill="#3C4151"/>
<defs>
<filter id="filter0_d_473_67" x="0" y="0" width="62" height="62" filterUnits="userSpaceOnUse" color-interpolation-filters="sRGB">
<feFlood flood-opacity="0" result="BackgroundImageFix"/>
<feColorMatrix in="SourceAlpha" type="matrix" values="0 0 0 0 0 0 0 0 0 0 0 0 0 0 0 0 0 0 127 0" result="hardAlpha"/>
<feOffset/>
<feGaussianBlur stdDeviation="5.5"/>
<feComposite in2="hardAlpha" operator="out"/>
<feColorMatrix type="matrix" values="0 0 0 0 0 0 0 0 0 0 0 0 0 0 0 0 0 0 0.25 0"/>
<feBlend mode="normal" in2="BackgroundImageFix" result="effect1_dropShadow_473_67"/>
<feBlend mode="normal" in="SourceGraphic" in2="effect1_dropShadow_473_67" result="shape"/>
</filter>
</defs>
</svg>
