<svg width="62" height="62" viewBox="0 0 62 62" fill="none" xmlns="http://www.w3.org/2000/svg">
<g filter="url(#filter0_d_473_66)">
<circle cx="31" cy="31" r="20" fill="white"/>
</g>
<path d="M32.0625 26.5938C32.0625 26.1623 31.7127 25.8125 31.2812 25.8125C30.8498 25.8125 30.5 26.1623 30.5 26.5938V28.9375H28.1562C27.7248 28.9375 27.375 29.2873 27.375 29.7188C27.375 30.1502 27.7248 30.5 28.1562 30.5H30.5V32.8438C30.5 33.2752 30.8498 33.625 31.2812 33.625C31.7127 33.625 32.0625 33.2752 32.0625 32.8438V30.5H34.4062C34.8377 30.5 35.1875 30.1502 35.1875 29.7188C35.1875 29.2873 34.8377 28.9375 34.4062 28.9375H32.0625V26.5938Z" fill="#3C4151"/>
<path d="M18.7813 19.5625C18.3498 19.5625 18 19.9123 18 20.3438C18 20.7752 18.3498 21.125 18.7813 21.125H20.515L21.1427 23.6356L23.4821 36.1127C23.5514 36.4822 23.874 36.75 24.25 36.75H25.8125C24.0866 36.75 22.6875 38.1491 22.6875 39.875C22.6875 41.6009 24.0866 43 25.8125 43C27.5384 43 28.9375 41.6009 28.9375 39.875C28.9375 38.1491 27.5384 36.75 25.8125 36.75H36.75C35.0241 36.75 33.625 38.1491 33.625 39.875C33.625 41.6009 35.0241 43 36.75 43C38.4759 43 39.875 41.6009 39.875 39.875C39.875 38.1491 38.4759 36.75 36.75 36.75H38.3125C38.6884 36.75 39.0111 36.4822 39.0803 36.1127L41.4241 23.6127C41.4669 23.3843 41.4058 23.1487 41.2575 22.9698C41.1091 22.791 40.8886 22.6875 40.6563 22.6875H22.5162L21.8829 20.1543C21.796 19.8065 21.4835 19.5625 21.125 19.5625H18.7813ZM24.8984 35.1875L22.8476 24.25H39.7148L37.6641 35.1875H24.8984ZM27.375 39.875C27.375 40.738 26.6754 41.4375 25.8125 41.4375C24.9496 41.4375 24.25 40.738 24.25 39.875C24.25 39.012 24.9496 38.3125 25.8125 38.3125C26.6754 38.3125 27.375 39.012 27.375 39.875ZM38.3125 39.875C38.3125 40.738 37.613 41.4375 36.75 41.4375C35.887 41.4375 35.1875 40.738 35.1875 39.875C35.1875 39.012 35.887 38.3125 36.75 38.3125C37.613 38.3125 38.3125 39.012 38.3125 39.875Z" fill="#3C4151"/>
<defs>
<filter id="filter0_d_473_66" x="0" y="0" width="62" height="62" filterUnits="userSpaceOnUse" color-interpolation-filters="sRGB">
<feFlood flood-opacity="0" result="BackgroundImageFix"/>
<feColorMatrix in="SourceAlpha" type="matrix" values="0 0 0 0 0 0 0 0 0 0 0 0 0 0 0 0 0 0 127 0" result="hardAlpha"/>
<feOffset/>
<feGaussianBlur stdDeviation="5.5"/>
<feComposite in2="hardAlpha" operator="out"/>
<feColorMatrix type="matrix" values="0 0 0 0 0 0 0 0 0 0 0 0 0 0 0 0 0 0 0.25 0"/>
<feBlend mode="normal" in2="BackgroundImageFix" result="effect1_dropShadow_473_66"/>
<feBlend mode="normal" in="SourceGraphic" in2="effect1_dropShadow_473_66" result="shape"/>
</filter>
</defs>
</svg>
