<svg width="62" height="62" viewBox="0 0 62 62" fill="none" xmlns="http://www.w3.org/2000/svg">
<g filter="url(#filter0_d_480_78)">
<circle cx="31" cy="31" r="20" fill="white"/>
</g>
<path d="M31 22.81C29.2692 22.5662 25.8077 21.8957 25.8077 21.1642C25.8077 20.4832 21.9745 22.0738 19.6608 23.1328C19.3402 23.2796 19.0672 23.5112 18.8661 23.8009L17.4045 25.9068C16.6805 26.95 17.0993 28.395 18.269 28.8894L20.4474 29.8101C20.9081 30.0048 21.4378 29.9381 21.8359 29.6353V29.6353C22.7549 28.9362 24.0769 29.5915 24.0769 30.7462V38C24.0769 39.1046 24.9724 40 26.0769 40H31" stroke="#3A4454"/>
<path d="M31 22.81C32.7308 22.5662 36.1923 21.8957 36.1923 21.1642C36.1923 20.4832 40.0255 22.0738 42.3392 23.1328C42.6598 23.2796 42.9328 23.5112 43.1339 23.8009L44.5955 25.9068C45.3195 26.95 44.9007 28.395 43.731 28.8894L41.5526 29.8101C41.0919 30.0048 40.5622 29.9381 40.1641 29.6353V29.6353C39.2451 28.9362 37.9231 29.5915 37.9231 30.7462V38C37.9231 39.1046 37.0276 40 35.9231 40H31" stroke="#3A4454"/>
<defs>
<filter id="filter0_d_480_78" x="0" y="0" width="62" height="62" filterUnits="userSpaceOnUse" color-interpolation-filters="sRGB">
<feFlood flood-opacity="0" result="BackgroundImageFix"/>
<feColorMatrix in="SourceAlpha" type="matrix" values="0 0 0 0 0 0 0 0 0 0 0 0 0 0 0 0 0 0 127 0" result="hardAlpha"/>
<feOffset/>
<feGaussianBlur stdDeviation="5.5"/>
<feComposite in2="hardAlpha" operator="out"/>
<feColorMatrix type="matrix" values="0 0 0 0 0 0 0 0 0 0 0 0 0 0 0 0 0 0 0.25 0"/>
<feBlend mode="normal" in2="BackgroundImageFix" result="effect1_dropShadow_480_78"/>
<feBlend mode="normal" in="SourceGraphic" in2="effect1_dropShadow_480_78" result="shape"/>
</filter>
</defs>
</svg>
