<svg width="62" height="62" viewBox="0 0 62 62" fill="none" xmlns="http://www.w3.org/2000/svg">
<g filter="url(#filter0_d_480_80)">
<circle cx="31" cy="31" r="20" fill="white"/>
</g>
<path d="M35.2112 36.6441L37.2253 41.0932M31 18H32.718C33.1481 18 33.6008 18.1175 33.8293 18.4818C34.2657 19.1775 34.2172 20.2811 32.185 21.4428C31.4904 21.8398 31 22.5442 31 23.3442V41C31 42.1046 31.8954 43 33 43H36.4859C37.6671 43 38.591 41.9818 38.4765 40.8062L37.2253 27.9576L40.09 36.2443C40.348 36.9908 41.0509 37.4915 41.8407 37.4915V37.4915C42.9761 37.4915 43.8443 36.4801 43.6639 35.3591C42.7751 29.8384 41.2916 21.4559 40.5211 20.1186C39.6422 18.5932 37.9577 18.0706 37.2253 18H31ZM35.2112 27.9576V29.4589C35.2112 30.2679 34.5554 30.9237 33.7464 30.9237V30.9237C32.9374 30.9237 32.2816 30.2679 32.2816 29.4589V28.575C32.2816 27.766 32.9374 27.1102 33.7464 27.1102H34.3638C34.8318 27.1102 35.2112 27.4896 35.2112 27.9576V27.9576Z" stroke="#3A4454"/>
<path d="M26.7888 36.6441L24.7747 41.0932M31 18H29.282C28.8519 18 28.3992 18.1175 28.1707 18.4818C27.7343 19.1775 27.7828 20.2811 29.815 21.4428C30.5096 21.8398 31 22.5442 31 23.3442V41C31 42.1046 30.1046 43 29 43H25.5141C24.3329 43 23.409 41.9818 23.5235 40.8062L24.7747 27.9576L21.91 36.2443C21.652 36.9908 20.9491 37.4915 20.1593 37.4915V37.4915C19.0239 37.4915 18.1557 36.4801 18.3361 35.3591C19.2249 29.8384 20.7084 21.4559 21.4789 20.1186C22.3578 18.5932 24.0423 18.0706 24.7747 18H31Z" stroke="#3A4454"/>
<defs>
<filter id="filter0_d_480_80" x="0" y="0" width="62" height="62" filterUnits="userSpaceOnUse" color-interpolation-filters="sRGB">
<feFlood flood-opacity="0" result="BackgroundImageFix"/>
<feColorMatrix in="SourceAlpha" type="matrix" values="0 0 0 0 0 0 0 0 0 0 0 0 0 0 0 0 0 0 127 0" result="hardAlpha"/>
<feOffset/>
<feGaussianBlur stdDeviation="5.5"/>
<feComposite in2="hardAlpha" operator="out"/>
<feColorMatrix type="matrix" values="0 0 0 0 0 0 0 0 0 0 0 0 0 0 0 0 0 0 0.25 0"/>
<feBlend mode="normal" in2="BackgroundImageFix" result="effect1_dropShadow_480_80"/>
<feBlend mode="normal" in="SourceGraphic" in2="effect1_dropShadow_480_80" result="shape"/>
</filter>
</defs>
</svg>
