<svg width="62" height="62" viewBox="0 0 62 62" fill="none" xmlns="http://www.w3.org/2000/svg">
<g filter="url(#filter0_d_480_75)">
<circle cx="31" cy="31" r="20" fill="white"/>
</g>
<path d="M29.0851 18L31 20.0661M29.0851 18L27.8085 19.4463M29.0851 18H31M31 20.0661V20.0661C30.7345 21.0973 29.4109 21.3913 28.7338 20.5695L27.8085 19.4463M31 20.0661V41C31 42.1046 30.1046 43 29 43H26.4043C25.2997 43 24.4043 42.1046 24.4043 41V27.5041L23.5054 33.0907C23.4103 33.6814 22.9005 34.1157 22.3022 34.1157V34.1157C21.5974 34.1157 21.0396 33.5196 21.0863 32.8163L21.7602 22.6738C21.8149 21.8494 22.3711 21.1435 23.1599 20.8973L27.8085 19.4463M25.5659 34.8361V34.8361C25.393 34.7801 25.2962 34.5967 25.3475 34.4224L26.0092 32.1734C26.0624 31.9924 26.2546 31.8909 26.4341 31.9491V31.9491C26.607 32.005 26.7038 32.1884 26.6525 32.3627L25.9908 34.6117C25.9376 34.7927 25.7454 34.8942 25.5659 34.8361Z" stroke="#3A4454"/>
<path d="M32.9149 18L31 20.0661M32.9149 18L34.1915 19.4463M32.9149 18H31M31 20.0661V20.0661C31.2655 21.0973 32.5891 21.3913 33.2662 20.5695L34.1915 19.4463M31 20.0661V41C31 42.1046 31.8954 43 33 43H35.5957C36.7003 43 37.5957 42.1046 37.5957 41V27.5041L38.4946 33.0907C38.5897 33.6814 39.0995 34.1157 39.6978 34.1157V34.1157C40.4026 34.1157 40.9604 33.5196 40.9137 32.8163L40.2398 22.6738C40.1851 21.8494 39.6289 21.1435 38.8401 20.8973L34.1915 19.4463M36.4341 34.8361V34.8361C36.607 34.7801 36.7038 34.5967 36.6525 34.4224L35.9908 32.1734C35.9376 31.9924 35.7454 31.8909 35.5659 31.9491V31.9491C35.393 32.005 35.2962 32.1884 35.3475 32.3627L36.0092 34.6117C36.0624 34.7927 36.2546 34.8942 36.4341 34.8361Z" stroke="#3A4454"/>
<defs>
<filter id="filter0_d_480_75" x="0" y="0" width="62" height="62" filterUnits="userSpaceOnUse" color-interpolation-filters="sRGB">
<feFlood flood-opacity="0" result="BackgroundImageFix"/>
<feColorMatrix in="SourceAlpha" type="matrix" values="0 0 0 0 0 0 0 0 0 0 0 0 0 0 0 0 0 0 127 0" result="hardAlpha"/>
<feOffset/>
<feGaussianBlur stdDeviation="5.5"/>
<feComposite in2="hardAlpha" operator="out"/>
<feColorMatrix type="matrix" values="0 0 0 0 0 0 0 0 0 0 0 0 0 0 0 0 0 0 0.25 0"/>
<feBlend mode="normal" in2="BackgroundImageFix" result="effect1_dropShadow_480_75"/>
<feBlend mode="normal" in="SourceGraphic" in2="effect1_dropShadow_480_75" result="shape"/>
</filter>
</defs>
</svg>
