<svg width="62" height="62" viewBox="0 0 62 62" fill="none" xmlns="http://www.w3.org/2000/svg">
<g filter="url(#filter0_d_486_99)">
<circle cx="31" cy="31" r="20" fill="white"/>
</g>
<g clip-path="url(#clip0_486_99)">
<path d="M31.5 23.4697C31.5 23.0383 31.1502 22.6885 30.7188 22.6885C30.2873 22.6885 29.9375 23.0383 29.9375 23.4697V32.0635C29.9375 32.3438 30.0877 32.6027 30.3311 32.7418L35.7998 35.8668C36.1745 36.0808 36.6517 35.9507 36.8658 35.5761C37.0798 35.2014 36.9497 34.7243 36.5752 34.5102L31.5 31.6101V23.4697Z" fill="#3C4151"/>
<path d="M31.5 43.001C38.4036 43.001 44 37.4046 44 30.501C44 23.5974 38.4036 18.001 31.5 18.001C24.5964 18.001 19 23.5974 19 30.501C19 37.4046 24.5964 43.001 31.5 43.001ZM42.4375 30.501C42.4375 36.5416 37.5406 41.4385 31.5 41.4385C25.4594 41.4385 20.5625 36.5416 20.5625 30.501C20.5625 24.4604 25.4594 19.5635 31.5 19.5635C37.5406 19.5635 42.4375 24.4604 42.4375 30.501Z" fill="#3C4151"/>
</g>
<defs>
<filter id="filter0_d_486_99" x="0" y="0" width="62" height="62" filterUnits="userSpaceOnUse" color-interpolation-filters="sRGB">
<feFlood flood-opacity="0" result="BackgroundImageFix"/>
<feColorMatrix in="SourceAlpha" type="matrix" values="0 0 0 0 0 0 0 0 0 0 0 0 0 0 0 0 0 0 127 0" result="hardAlpha"/>
<feOffset/>
<feGaussianBlur stdDeviation="5.5"/>
<feComposite in2="hardAlpha" operator="out"/>
<feColorMatrix type="matrix" values="0 0 0 0 0 0 0 0 0 0 0 0 0 0 0 0 0 0 0.25 0"/>
<feBlend mode="normal" in2="BackgroundImageFix" result="effect1_dropShadow_486_99"/>
<feBlend mode="normal" in="SourceGraphic" in2="effect1_dropShadow_486_99" result="shape"/>
</filter>
<clipPath id="clip0_486_99">
<rect width="25" height="25" fill="white" transform="translate(19 18.001)"/>
</clipPath>
</defs>
</svg>
