<svg width="80" height="81" viewBox="0 0 80 81" fill="none" xmlns="http://www.w3.org/2000/svg">
<path d="M80 38.0486C80 58.7624 62.0915 75.5542 40 75.5542C35.9162 75.5542 31.9754 74.9804 28.2642 73.9141C25.3449 75.499 18.6387 78.5461 7.3586 80.5248C6.36355 80.6994 5.60185 79.5839 5.9949 78.5889C7.7654 74.107 9.36255 68.1399 9.84895 62.6957C3.7153 56.1043 0 47.4832 0 38.0486C0 17.3348 17.9086 0.542969 40 0.542969C62.0915 0.542969 80 17.3348 80 38.0486ZM22.5 21.9748C21.1193 21.9748 20 23.1742 20 24.6537C20 26.1333 21.1193 27.3327 22.5 27.3327H57.5C58.8805 27.3327 60 26.1333 60 24.6537C60 23.1742 58.8805 21.9748 57.5 21.9748H22.5ZM22.5 35.3696C21.1193 35.3696 20 36.569 20 38.0486C20 39.5281 21.1193 40.7276 22.5 40.7276H57.5C58.8805 40.7276 60 39.5281 60 38.0486C60 36.569 58.8805 35.3696 57.5 35.3696H22.5ZM22.5 48.7645C21.1193 48.7645 20 49.9641 20 51.4435C20 52.9228 21.1193 54.1224 22.5 54.1224H42.5C43.8807 54.1224 45 52.9228 45 51.4435C45 49.9641 43.8807 48.7645 42.5 48.7645H22.5Z" fill="#258c93"/>
</svg>
