<svg width="27" height="53" viewBox="0 0 27 53" fill="none" xmlns="http://www.w3.org/2000/svg">
<g clip-path="url(#clip0_351_1714)">
<path d="M0.00819701 26.6316C0.0364469 26.9013 0.152723 27.153 0.338187 27.3466L24.9762 52.626C25.1936 52.86 25.4933 52.9948 25.8086 52.9999C26.1238 53.0049 26.4276 52.8793 26.6516 52.652C26.8755 52.4247 27.0012 52.1143 27 51.7912C26.9988 51.4677 26.8706 51.1585 26.6446 50.9329L2.83039 26.5L26.6446 2.0671C26.8706 1.84192 26.9988 1.53229 27 1.20881C27.0012 0.885324 26.8755 0.575288 26.6516 0.348005C26.4276 0.120302 26.1238 -0.00488917 25.8086 0.000146227C25.4933 0.00518544 25.1936 0.139627 24.9762 0.374051L0.337137 25.6534C0.0894361 25.9117 -0.0317461 26.2709 0.00714947 26.6314L0.00819701 26.6316Z" fill="#797979"/>
</g>
<defs>
<clipPath id="clip0_351_1714">
<rect width="27" height="53" fill="white"/>
</clipPath>
</defs>
</svg>
