<svg width="27" height="53" viewBox="0 0 27 53" fill="none" xmlns="http://www.w3.org/2000/svg">
<path d="M26.9918 26.3684C26.9636 26.0987 26.8473 25.847 26.6618 25.6534L2.02377 0.37405C1.80637 0.140045 1.50668 0.00519014 1.19142 0.000146094C0.876175 -0.00489515 0.57239 0.120718 0.348429 0.348001C0.124478 0.575284 -0.00121528 0.885744 1.11302e-05 1.20881C0.00123944 1.53229 0.129391 1.8415 0.355385 2.0671L24.1696 26.5L0.355383 50.9329C0.129389 51.1581 0.00123535 51.4677 8.91913e-06 51.7912C-0.00121943 52.1147 0.124475 52.4247 0.348427 52.652C0.572378 52.8797 0.876173 53.0049 1.19142 52.9999C1.50667 52.9948 1.80637 52.8604 2.02377 52.6259L26.6629 27.3466C26.9106 27.0883 27.0317 26.7291 26.9928 26.3686L26.9918 26.3684Z" fill="#797979"/>
</svg>
