<svg width="25" height="25" viewBox="0 0 25 25" fill="none" xmlns="http://www.w3.org/2000/svg">
<path d="M14.0625 8.59375C14.0625 8.16228 13.7127 7.8125 13.2812 7.8125C12.8498 7.8125 12.5 8.16228 12.5 8.59375V10.9375H10.1562C9.72478 10.9375 9.375 11.2873 9.375 11.7188C9.375 12.1502 9.72478 12.5 10.1562 12.5H12.5V14.8438C12.5 15.2752 12.8498 15.625 13.2812 15.625C13.7127 15.625 14.0625 15.2752 14.0625 14.8438V12.5H16.4062C16.8377 12.5 17.1875 12.1502 17.1875 11.7188C17.1875 11.2873 16.8377 10.9375 16.4062 10.9375H14.0625V8.59375Z" fill="#3C4151"/>
<path d="M0.78125 1.5625C0.349778 1.5625 0 1.91228 0 2.34375C0 2.77522 0.349778 3.125 0.78125 3.125H2.51502L3.14267 5.63562L5.48213 18.1127C5.55142 18.4822 5.87405 18.75 6.25 18.75H7.8125C6.08661 18.75 4.6875 20.1491 4.6875 21.875C4.6875 23.6009 6.08661 25 7.8125 25C9.53839 25 10.9375 23.6009 10.9375 21.875C10.9375 20.1491 9.53839 18.75 7.8125 18.75H18.75C17.0241 18.75 15.625 20.1491 15.625 21.875C15.625 23.6009 17.0241 25 18.75 25C20.4759 25 21.875 23.6009 21.875 21.875C21.875 20.1491 20.4759 18.75 18.75 18.75H20.3125C20.6884 18.75 21.0111 18.4822 21.0803 18.1127L23.4241 5.61272C23.4669 5.3843 23.4058 5.14866 23.2575 4.96981C23.1091 4.79097 22.8886 4.6875 22.6563 4.6875H4.51624L3.88292 2.15427C3.79599 1.80648 3.48349 1.5625 3.125 1.5625H0.78125ZM6.89838 17.1875L4.84759 6.25H21.7148L19.6641 17.1875H6.89838ZM9.375 21.875C9.375 22.738 8.67544 23.4375 7.8125 23.4375C6.94956 23.4375 6.25 22.738 6.25 21.875C6.25 21.012 6.94956 20.3125 7.8125 20.3125C8.67544 20.3125 9.375 21.012 9.375 21.875ZM20.3125 21.875C20.3125 22.738 19.613 23.4375 18.75 23.4375C17.887 23.4375 17.1875 22.738 17.1875 21.875C17.1875 21.012 17.887 20.3125 18.75 20.3125C19.613 20.3125 20.3125 21.012 20.3125 21.875Z" fill="#3C4151"/>
</svg>
