<svg width="62" height="62" viewBox="0 0 62 62" fill="none" xmlns="http://www.w3.org/2000/svg">
<g filter="url(#filter0_d_480_76)">
<circle cx="31" cy="31" r="20" fill="white"/>
</g>
<path d="M31.084 16.7487L31.3303 16.5158C32.1876 15.7049 33.558 15.8132 34.2773 16.7487V16.7487M31.084 16.7487V16.7487C31.599 17.7229 32.8878 17.9619 33.7179 17.2372L34.2773 16.7487M31.084 16.7487V29.3744C31.084 30.4789 31.9795 31.3744 33.084 31.3744H35.4706C36.5752 31.3744 37.4706 30.4789 37.4706 29.3744V23.5846L38.7741 28.5167C38.8974 28.9829 39.3191 29.3077 39.8014 29.3077V29.3077C40.4387 29.3077 40.9327 28.7505 40.8562 28.1177L39.8179 19.5241C39.7198 18.7121 39.1371 18.0416 38.3466 17.8313L34.2773 16.7487M36.6303 27.0821H34.9496M37.4706 32.8051L36.734 44.3715C36.6756 45.2872 35.916 46 34.9985 46V46C34.1841 46 33.4788 45.4349 33.3013 44.6401L31.084 34.7128" stroke="#3A4454"/>
<path d="M24.5293 32.9641H30.9159" stroke="#3A4454"/>
<path d="M26.3785 33.918L25.3701 35.8257" stroke="#3A4454"/>
<path d="M35.4541 34.0769L36.4625 35.9846" stroke="#3A4454"/>
<path d="M30.916 16.7487L30.6697 16.5158C29.8124 15.7049 28.442 15.8132 27.7227 16.7487V16.7487M30.916 16.7487V16.7487C30.401 17.7229 29.1122 17.9619 28.2821 17.2372L27.7227 16.7487M30.916 16.7487V29.3744C30.916 30.4789 30.0205 31.3744 28.916 31.3744H26.5294C25.4248 31.3744 24.5294 30.4789 24.5294 29.3744V23.5846L23.2259 28.5167C23.1026 28.9829 22.6809 29.3077 22.1986 29.3077V29.3077C21.5613 29.3077 21.0673 28.7505 21.1438 28.1177L22.1821 19.5241C22.2802 18.7121 22.8629 18.0416 23.6534 17.8313L27.7227 16.7487M25.3697 27.0821H27.0504M24.5294 32.8051L25.266 44.3715C25.3244 45.2872 26.084 46 27.0015 46V46C27.8159 46 28.5212 45.4349 28.6987 44.6401L30.916 34.7128" stroke="#3A4454"/>
<path d="M30.916 32.9641H37.3026" stroke="#3A4454"/>
<defs>
<filter id="filter0_d_480_76" x="0" y="0" width="62" height="62" filterUnits="userSpaceOnUse" color-interpolation-filters="sRGB">
<feFlood flood-opacity="0" result="BackgroundImageFix"/>
<feColorMatrix in="SourceAlpha" type="matrix" values="0 0 0 0 0 0 0 0 0 0 0 0 0 0 0 0 0 0 127 0" result="hardAlpha"/>
<feOffset/>
<feGaussianBlur stdDeviation="5.5"/>
<feComposite in2="hardAlpha" operator="out"/>
<feColorMatrix type="matrix" values="0 0 0 0 0 0 0 0 0 0 0 0 0 0 0 0 0 0 0.25 0"/>
<feBlend mode="normal" in2="BackgroundImageFix" result="effect1_dropShadow_480_76"/>
<feBlend mode="normal" in="SourceGraphic" in2="effect1_dropShadow_480_76" result="shape"/>
</filter>
</defs>
</svg>
