<svg width="30" height="30" viewBox="0 0 30 30" fill="none" xmlns="http://www.w3.org/2000/svg">
<g clip-path="url(#clip0_275_768)">
<path d="M26.25 1.875C27.2856 1.875 28.125 2.71447 28.125 3.75V26.25C28.125 27.2856 27.2856 28.125 26.25 28.125H3.75C2.71447 28.125 1.875 27.2856 1.875 26.25V3.75C1.875 2.71447 2.71447 1.875 3.75 1.875H26.25ZM3.75 0C1.67893 0 0 1.67893 0 3.75V26.25C0 28.3211 1.67893 30 3.75 30H26.25C28.3211 30 30 28.3211 30 26.25V3.75C30 1.67893 28.3211 0 26.25 0H3.75Z" fill="#258c93"/>
<path d="M7.5 15C7.5 14.4822 7.91974 14.0625 8.4375 14.0625H21.5625C22.0802 14.0625 22.5 14.4822 22.5 15C22.5 15.5178 22.0802 15.9375 21.5625 15.9375H8.4375C7.91974 15.9375 7.5 15.5178 7.5 15Z" fill="#258c93"/>
</g>
<defs>
<clipPath id="clip0_275_768">
<rect width="30" height="30" fill="white"/>
</clipPath>
</defs>
</svg>
