<svg width="62" height="62" viewBox="0 0 62 62" fill="none" xmlns="http://www.w3.org/2000/svg">
<g filter="url(#filter0_d_486_103)">
<circle cx="31" cy="31" r="20" fill="white"/>
</g>
<g clip-path="url(#clip0_486_103)">
<path d="M29.0434 19.799C29.4805 18.9249 30.2703 18 31.5 18C32.7297 18 33.5195 18.9249 33.9566 19.799C34.4076 20.701 34.625 21.7994 34.625 22.6875V28.4547L42.7044 32.4944C43.4984 32.8914 44 33.703 44 34.5906V36.75C44 36.9797 43.8989 37.1977 43.7238 37.3461C43.5484 37.4945 43.3169 37.5584 43.0903 37.5206L34.4859 36.0866L33.8992 39.6069L35.9587 41.6663C36.1822 41.8897 36.2489 42.2258 36.128 42.5177C36.007 42.8097 35.7222 43 35.4062 43H27.5938C27.2778 43 26.9929 42.8097 26.872 42.5177C26.751 42.2258 26.8179 41.8897 27.0413 41.6663L29.1008 39.6069L28.5141 36.0866L19.9097 37.5206C19.6832 37.5584 19.4515 37.4945 19.2763 37.3461C19.101 37.1977 19 36.9797 19 36.75V34.5906C19 33.703 19.5016 32.8914 20.2956 32.4944L28.375 28.4547V22.6875C28.375 21.7994 28.5924 20.701 29.0434 19.799ZM30.441 20.4978C30.1107 21.1583 29.9375 22.0131 29.9375 22.6875V28.9375C29.9375 29.2334 29.7703 29.5039 29.5056 29.6363L20.9944 33.8919C20.7297 34.0242 20.5625 34.2947 20.5625 34.5906V35.8278L29.0278 34.4169C29.4534 34.3459 29.8559 34.6334 29.9269 35.0591L30.7081 39.7466C30.7496 39.9955 30.6683 40.2491 30.4899 40.4275L29.4799 41.4375H33.5201L32.5101 40.4275C32.3317 40.2491 32.2504 39.9955 32.2919 39.7466L33.0731 35.0591C33.1441 34.6334 33.5466 34.3459 33.9722 34.4169L42.4375 35.8278V34.5906C42.4375 34.2947 42.2703 34.0242 42.0056 33.8919L33.4944 29.6363C33.2297 29.5039 33.0625 29.2334 33.0625 28.9375V22.6875C33.0625 22.0131 32.8893 21.1583 32.559 20.4978C32.2149 19.8095 31.8328 19.5625 31.5 19.5625C31.1672 19.5625 30.7851 19.8095 30.441 20.4978Z" fill="#3C4151"/>
</g>
<defs>
<filter id="filter0_d_486_103" x="0" y="0" width="62" height="62" filterUnits="userSpaceOnUse" color-interpolation-filters="sRGB">
<feFlood flood-opacity="0" result="BackgroundImageFix"/>
<feColorMatrix in="SourceAlpha" type="matrix" values="0 0 0 0 0 0 0 0 0 0 0 0 0 0 0 0 0 0 127 0" result="hardAlpha"/>
<feOffset/>
<feGaussianBlur stdDeviation="5.5"/>
<feComposite in2="hardAlpha" operator="out"/>
<feColorMatrix type="matrix" values="0 0 0 0 0 0 0 0 0 0 0 0 0 0 0 0 0 0 0.25 0"/>
<feBlend mode="normal" in2="BackgroundImageFix" result="effect1_dropShadow_486_103"/>
<feBlend mode="normal" in="SourceGraphic" in2="effect1_dropShadow_486_103" result="shape"/>
</filter>
<clipPath id="clip0_486_103">
<rect width="25" height="25" fill="white" transform="translate(19 18)"/>
</clipPath>
</defs>
</svg>
