<svg width="62" height="62" viewBox="0 0 62 62" fill="none" xmlns="http://www.w3.org/2000/svg">
<g filter="url(#filter0_d_486_102)">
<circle cx="31" cy="31" r="20" fill="white"/>
</g>
<path d="M18 23.4688C18 22.1743 19.0493 21.125 20.3438 21.125H34.4062C35.7006 21.125 36.75 22.1743 36.75 23.4688V25.8125H38.3428C39.0548 25.8125 39.7281 26.1361 40.173 26.6921L42.4864 29.584C42.8189 29.9995 43 30.5159 43 31.0481V34.4062C43 35.7006 41.9506 36.75 40.6562 36.75H39.875C39.875 38.4759 38.4759 39.875 36.75 39.875C35.0241 39.875 33.625 38.4759 33.625 36.75H25.8125C25.8125 38.4759 24.4134 39.875 22.6875 39.875C20.9616 39.875 19.5625 38.4759 19.5625 36.75C19.5625 36.7056 19.5634 36.6616 19.5653 36.6177C18.6535 36.2966 18 35.4278 18 34.4062V23.4688ZM20.0218 35.1183C20.5713 34.2225 21.5596 33.625 22.6875 33.625C23.8442 33.625 24.8541 34.2534 25.3944 35.1875H34.0431C34.3175 34.7131 34.7131 34.3175 35.1875 34.0431V23.4688C35.1875 23.0373 34.8377 22.6875 34.4062 22.6875H20.3438C19.9123 22.6875 19.5625 23.0373 19.5625 23.4688V34.4062C19.5625 34.723 19.7509 34.9956 20.0218 35.1183ZM36.75 33.625C37.9067 33.625 38.9166 34.2534 39.4569 35.1875H40.6562C41.0877 35.1875 41.4375 34.8377 41.4375 34.4062V31.0481C41.4375 30.8707 41.3772 30.6986 41.2663 30.56L38.9528 27.6682C38.8045 27.4829 38.5802 27.375 38.3428 27.375H36.75V33.625ZM22.6875 35.1875C21.8246 35.1875 21.125 35.887 21.125 36.75C21.125 37.613 21.8246 38.3125 22.6875 38.3125C23.5504 38.3125 24.25 37.613 24.25 36.75C24.25 35.887 23.5504 35.1875 22.6875 35.1875ZM36.75 35.1875C35.887 35.1875 35.1875 35.887 35.1875 36.75C35.1875 37.613 35.887 38.3125 36.75 38.3125C37.613 38.3125 38.3125 37.613 38.3125 36.75C38.3125 35.887 37.613 35.1875 36.75 35.1875Z" fill="#3C4151"/>
<defs>
<filter id="filter0_d_486_102" x="0" y="0" width="62" height="62" filterUnits="userSpaceOnUse" color-interpolation-filters="sRGB">
<feFlood flood-opacity="0" result="BackgroundImageFix"/>
<feColorMatrix in="SourceAlpha" type="matrix" values="0 0 0 0 0 0 0 0 0 0 0 0 0 0 0 0 0 0 127 0" result="hardAlpha"/>
<feOffset/>
<feGaussianBlur stdDeviation="5.5"/>
<feComposite in2="hardAlpha" operator="out"/>
<feColorMatrix type="matrix" values="0 0 0 0 0 0 0 0 0 0 0 0 0 0 0 0 0 0 0.25 0"/>
<feBlend mode="normal" in2="BackgroundImageFix" result="effect1_dropShadow_486_102"/>
<feBlend mode="normal" in="SourceGraphic" in2="effect1_dropShadow_486_102" result="shape"/>
</filter>
</defs>
</svg>
