<svg width="62" height="62" viewBox="0 0 62 62" fill="none" xmlns="http://www.w3.org/2000/svg">
<g filter="url(#filter0_d_486_101)">
<circle cx="31" cy="31" r="20" fill="white"/>
</g>
<path d="M26.9957 19.6737C27.3657 19.8957 27.4857 20.3756 27.2637 20.7456L23.2861 27.3749H37.7139L33.7364 20.7456C33.5143 20.3756 33.6344 19.8957 34.0044 19.6737C34.3742 19.4517 34.8542 19.5717 35.0761 19.9417L39.5361 27.3749H41.4375C42.3005 27.3749 43 28.0744 43 28.9374V30.4999C43 31.3628 42.3005 32.0624 41.4375 32.0624V39.094C41.4375 41.2515 39.6884 42.9999 37.5312 42.9999H23.4688C21.3115 42.9999 19.5625 41.2515 19.5625 39.094V32.0624C18.6996 32.0624 18 31.3628 18 30.4999V28.9374C18 28.0744 18.6996 27.3749 19.5625 27.3749H21.4639L25.9238 19.9417C26.1458 19.5717 26.6257 19.4517 26.9957 19.6737ZM21.125 32.0624V39.094C21.125 40.3882 22.1742 41.4374 23.4688 41.4374H37.5312C38.8258 41.4374 39.875 40.3882 39.875 39.094V32.0624H21.125ZM19.5625 28.9374V30.4999H41.4375V28.9374H19.5625ZM24.25 33.6249C24.6815 33.6249 25.0312 33.9746 25.0312 34.4062V39.0937C25.0312 39.5251 24.6815 39.8749 24.25 39.8749C23.8185 39.8749 23.4688 39.5251 23.4688 39.0937V34.4062C23.4688 33.9746 23.8185 33.6249 24.25 33.6249ZM27.375 33.6249C27.8065 33.6249 28.1562 33.9746 28.1562 34.4062V39.0937C28.1562 39.5251 27.8065 39.8749 27.375 39.8749C26.9435 39.8749 26.5938 39.5251 26.5938 39.0937V34.4062C26.5938 33.9746 26.9435 33.6249 27.375 33.6249ZM30.5 33.6249C30.9315 33.6249 31.2812 33.9746 31.2812 34.4062V39.0937C31.2812 39.5251 30.9315 39.8749 30.5 39.8749C30.0685 39.8749 29.7188 39.5251 29.7188 39.0937V34.4062C29.7188 33.9746 30.0685 33.6249 30.5 33.6249ZM33.625 33.6249C34.0564 33.6249 34.4062 33.9746 34.4062 34.4062V39.0937C34.4062 39.5251 34.0564 39.8749 33.625 39.8749C33.1935 39.8749 32.8438 39.5251 32.8438 39.0937V34.4062C32.8438 33.9746 33.1935 33.6249 33.625 33.6249ZM36.75 33.6249C37.1814 33.6249 37.5312 33.9746 37.5312 34.4062V39.0937C37.5312 39.5251 37.1814 39.8749 36.75 39.8749C36.3186 39.8749 35.9688 39.5251 35.9688 39.0937V34.4062C35.9688 33.9746 36.3186 33.6249 36.75 33.6249Z" fill="#3C4151"/>
<defs>
<filter id="filter0_d_486_101" x="0" y="0" width="62" height="62" filterUnits="userSpaceOnUse" color-interpolation-filters="sRGB">
<feFlood flood-opacity="0" result="BackgroundImageFix"/>
<feColorMatrix in="SourceAlpha" type="matrix" values="0 0 0 0 0 0 0 0 0 0 0 0 0 0 0 0 0 0 127 0" result="hardAlpha"/>
<feOffset/>
<feGaussianBlur stdDeviation="5.5"/>
<feComposite in2="hardAlpha" operator="out"/>
<feColorMatrix type="matrix" values="0 0 0 0 0 0 0 0 0 0 0 0 0 0 0 0 0 0 0.25 0"/>
<feBlend mode="normal" in2="BackgroundImageFix" result="effect1_dropShadow_486_101"/>
<feBlend mode="normal" in="SourceGraphic" in2="effect1_dropShadow_486_101" result="shape"/>
</filter>
</defs>
</svg>
