<svg width="62" height="62" viewBox="0 0 62 62" fill="none" xmlns="http://www.w3.org/2000/svg">
<g filter="url(#filter0_d_480_77)">
<circle cx="31" cy="31" r="20" fill="white"/>
</g>
<path d="M31.0658 19.7483L27.7618 19.4064C27.6231 19.3921 27.5387 19.2469 27.6152 19.1304V19.1304M31.0658 18.0181C30.1667 17.9413 28.3101 18.0721 27.6152 19.1304M27.6152 19.1304L23.5457 20.2464C22.9826 20.4009 22.5152 20.7938 22.2653 21.3215C21.743 22.4247 21.0907 23.7956 21.0046 23.9501C20.9303 24.0832 21.7685 24.4106 22.6186 24.6983C23.3178 24.935 24.0856 24.7349 24.6053 24.2107L24.8637 23.9501L25.854 28.723C25.9274 29.0771 25.9035 29.4445 25.7848 29.786L22.7094 38.6334C22.6756 38.7307 22.6534 38.8317 22.6433 38.9343L22.4126 41.2789C22.3602 41.8105 23.0206 42.0966 23.3726 41.6948V41.6948C23.5826 41.4552 23.9517 41.4439 24.1761 41.6701L24.4422 41.9386C24.6488 42.1471 24.9992 42.0904 25.1295 41.8274V41.8274C25.2652 41.5536 25.6359 41.5062 25.8361 41.7371L26.0117 41.9395C26.1943 42.15 26.5287 42.1233 26.6755 41.8863L26.7261 41.8047C26.8752 41.564 27.2309 41.5815 27.3558 41.8356V41.8356C27.4744 42.0772 27.8065 42.1081 27.9677 41.8925L28.074 41.7504C28.2532 41.5107 28.6175 41.5266 28.7752 41.781L28.832 41.8728C28.9719 42.0986 29.3005 42.0986 29.4404 41.8728L29.5207 41.7431C29.6448 41.5429 29.9448 41.5728 30.0268 41.7936V41.7936C30.1107 42.0192 30.42 42.0439 30.5386 41.8345L30.76 41.4437C30.7853 41.399 30.8165 41.3569 30.8594 41.3287C30.9628 41.2606 31.1176 41.2134 31.2063 41.3762" stroke="#3A4454"/>
<path d="M30.9342 19.7666L34.2382 19.4247C34.3769 19.4104 34.4613 19.2652 34.3848 19.1487V19.1487M30.9342 18.0364C31.8333 17.9597 33.6899 18.0904 34.3848 19.1487M34.3848 19.1487L38.4543 20.2648C39.0174 20.4192 39.4848 20.8121 39.7347 21.3398C40.257 22.443 40.9093 23.8139 40.9954 23.9684C41.0697 24.1015 40.2315 24.4289 39.3814 24.7167C38.6822 24.9533 37.9144 24.7532 37.3947 24.229L37.1363 23.9684L36.146 28.7413C36.0726 29.0954 36.0965 29.4628 36.2152 29.8043L39.2906 38.6517C39.3244 38.749 39.3466 38.85 39.3567 38.9526L39.5874 41.2972C39.6398 41.8289 38.9794 42.1149 38.6274 41.7132V41.7132C38.4174 41.4735 38.0483 41.4622 37.8239 41.6885L37.5578 41.957C37.3512 42.1654 37.0008 42.1087 36.8705 41.8457V41.8457C36.7348 41.5719 36.3641 41.5245 36.1639 41.7554L35.9883 41.9578C35.8057 42.1684 35.4713 42.1416 35.3245 41.9046L35.2739 41.823C35.1248 41.5823 34.7691 41.5998 34.6442 41.8539V41.8539C34.5256 42.0955 34.1935 42.1264 34.0323 41.9108L33.926 41.7687C33.7468 41.529 33.3825 41.5449 33.2248 41.7994L33.168 41.8911C33.0281 42.1169 32.6995 42.1169 32.5596 41.8911L32.4683 41.7437C32.3487 41.5507 32.0595 41.5796 31.9804 41.7924V41.7924C31.8972 42.0162 31.587 42.0328 31.4803 41.8191L31.2063 41.2698" stroke="#3A4454"/>
<path d="M27.6699 19.3923L28.9357 20.4323C29.62 20.9945 30.647 20.7947 31.0705 20.0169V20.0169V20.0169C31.5719 20.8062 32.6578 20.965 33.3642 20.3523L34.4711 19.3923" stroke="#3A4454"/>
<defs>
<filter id="filter0_d_480_77" x="0" y="0" width="62" height="62" filterUnits="userSpaceOnUse" color-interpolation-filters="sRGB">
<feFlood flood-opacity="0" result="BackgroundImageFix"/>
<feColorMatrix in="SourceAlpha" type="matrix" values="0 0 0 0 0 0 0 0 0 0 0 0 0 0 0 0 0 0 127 0" result="hardAlpha"/>
<feOffset/>
<feGaussianBlur stdDeviation="5.5"/>
<feComposite in2="hardAlpha" operator="out"/>
<feColorMatrix type="matrix" values="0 0 0 0 0 0 0 0 0 0 0 0 0 0 0 0 0 0 0.25 0"/>
<feBlend mode="normal" in2="BackgroundImageFix" result="effect1_dropShadow_480_77"/>
<feBlend mode="normal" in="SourceGraphic" in2="effect1_dropShadow_480_77" result="shape"/>
</filter>
</defs>
</svg>
