<svg width="37" height="37" viewBox="0 0 37 37" fill="none" xmlns="http://www.w3.org/2000/svg">
<g clip-path="url(#clip0_74_9)">
<path d="M37 18.6124C37 8.33227 28.7166 -0.00140381 18.4988 -0.00140381C8.28095 -0.00140381 -0.0022583 8.33227 -0.0022583 18.6124C-0.0022583 27.9031 6.76332 35.6037 15.608 37V23.9929H10.9105V18.6124H15.608V14.5115C15.608 9.84645 18.3701 7.26961 22.5962 7.26961C24.6203 7.26961 26.7376 7.63315 26.7376 7.63315V12.2139H24.4047C22.1064 12.2139 21.3896 13.6487 21.3896 15.1207V18.6124H26.5207L25.7004 23.9929H21.3896V37C30.2343 35.6037 37 27.9031 37 18.6124Z" fill="#258c93"/>
</g>
<defs>
<clipPath id="clip0_74_9">
<rect width="37" height="37" fill="white"/>
</clipPath>
</defs>
</svg>
