<svg width="37" height="37" viewBox="0 0 37 37" fill="none" xmlns="http://www.w3.org/2000/svg">
<g clip-path="url(#clip0_74_11)">
<path d="M18.5017 0C13.4774 0 12.8468 0.0219693 10.8735 0.111772C8.90398 0.201961 7.55963 0.513766 6.38333 0.971259C5.16656 1.44379 4.1344 2.07588 3.1061 3.10455C2.07703 4.13288 1.44494 5.16502 0.970875 6.38141C0.512223 7.55811 0.200033 8.90282 0.111386 10.8716C0.023125 12.8449 0 13.4758 0 18.5002C0 23.5246 0.0223548 24.1531 0.111772 26.1266C0.202346 28.096 0.514152 29.4404 0.971259 30.6166C1.44417 31.8334 2.07626 32.8655 3.10495 33.8939C4.13288 34.9229 5.16502 35.5565 6.38102 36.0292C7.55811 36.4866 8.90282 36.7984 10.8719 36.8885C12.8453 36.9785 13.4755 37.0005 18.4994 37.0005C23.5241 37.0005 24.1527 36.9785 26.1262 36.8885C28.0957 36.7984 29.4416 36.4866 30.6187 36.0292C31.835 35.5565 32.8655 34.9229 33.8936 33.8939C34.9227 32.8655 35.5547 31.8334 36.0288 30.617C36.4836 29.4404 36.7958 28.0957 36.8883 26.1269C36.9769 24.1536 37 23.5246 37 18.5002C37 13.4758 36.9769 12.8453 36.8883 10.8719C36.7958 8.90245 36.4836 7.55811 36.0288 6.38181C35.5547 5.16502 34.9227 4.13288 33.8936 3.10455C32.8643 2.07549 31.8353 1.4434 30.6175 0.971259C29.4381 0.513766 28.0929 0.201961 26.1234 0.111772C24.1501 0.0219693 23.5218 0 18.496 0H18.5017ZM16.8421 3.33388C17.3347 3.33312 17.8843 3.33388 18.5017 3.33388C23.4413 3.33388 24.0266 3.35162 25.9775 3.44026C27.7812 3.52275 28.7601 3.82414 29.4122 4.07738C30.2755 4.41269 30.8911 4.81352 31.5381 5.46102C32.1856 6.10854 32.5866 6.72521 32.9226 7.58854C33.1758 8.2399 33.4776 9.21887 33.5597 11.0226C33.6485 12.9729 33.6677 13.5587 33.6677 18.496C33.6677 23.4333 33.6485 24.019 33.5597 25.9691C33.4774 27.7731 33.1758 28.752 32.9226 29.4034C32.5873 30.2667 32.1856 30.8814 31.5381 31.5286C30.8906 32.1761 30.2759 32.5769 29.4122 32.9122C28.7608 33.1666 27.7812 33.4672 25.9775 33.5498C24.0271 33.6383 23.4413 33.6577 18.5017 33.6577C13.5618 33.6577 12.9763 33.6383 11.0261 33.5498C9.22234 33.4665 8.24337 33.1649 7.59085 32.9117C6.72753 32.5764 6.11085 32.1757 5.46333 31.5282C4.81583 30.8807 4.415 30.2655 4.0789 29.4018C3.82568 28.7504 3.5239 27.7715 3.44181 25.9678C3.35317 24.0174 3.33543 23.4316 3.33543 18.4913C3.33543 13.551 3.35317 12.9682 3.44181 11.018C3.5243 9.21425 3.82568 8.23528 4.0789 7.58315C4.41422 6.7198 4.81583 6.10313 5.46333 5.45563C6.11085 4.80813 6.72753 4.40728 7.59085 4.0712C8.243 3.81683 9.22234 3.5162 11.0261 3.43332C12.7328 3.35625 13.3941 3.33312 16.8421 3.32926V3.33388ZM28.3769 6.40569C27.1513 6.40569 26.1569 7.39891 26.1569 8.62495C26.1569 9.85058 27.1513 10.845 28.3769 10.845C29.6025 10.845 30.5969 9.85058 30.5969 8.62495C30.5969 7.39931 29.6025 6.40569 28.3769 6.40569ZM18.5017 8.99958C13.255 8.99958 9.00111 13.2535 9.00111 18.5002C9.00111 23.7468 13.255 27.9988 18.5017 27.9988C23.7484 27.9988 28.0009 23.7468 28.0009 18.5002C28.0009 13.2535 23.7484 8.99958 18.5017 8.99958ZM18.5017 12.3335C21.9073 12.3335 24.6684 15.0942 24.6684 18.5002C24.6684 21.9058 21.9073 24.667 18.5017 24.667C15.0958 24.667 12.335 21.9058 12.335 18.5002C12.335 15.0942 15.0958 12.3335 18.5017 12.3335Z" fill="#258c93"/>
</g>
<defs>
<clipPath id="clip0_74_11">
<rect width="37" height="37" fill="white"/>
</clipPath>
</defs>
</svg>
