<svg width="37" height="37" viewBox="0 0 37 37" fill="none" xmlns="http://www.w3.org/2000/svg">
<g clip-path="url(#clip0_74_13)">
<path d="M0 17.945C0 7.63384 8.07839 0 18.5 0C28.9215 0 37 7.63384 37 17.945C37 28.2562 28.9215 35.89 18.5 35.89C16.6281 35.89 14.8322 35.6428 13.1448 35.1789C12.8168 35.0885 12.468 35.1142 12.1567 35.2513L8.48472 36.8724C7.5242 37.2965 6.43997 36.6133 6.40778 35.5637L6.30702 32.2728C6.29462 31.8674 6.11222 31.4884 5.81004 31.2181C2.21038 27.9988 0 23.3384 0 17.945ZM12.8252 14.5713L7.39084 23.193C6.86933 24.0204 7.88639 24.9528 8.66549 24.3617L14.5029 19.9314C14.8978 19.6317 15.4435 19.6301 15.84 19.9275L20.1623 23.1694C21.4593 24.142 23.3105 23.8005 24.1749 22.429L29.6092 13.8072C30.1307 12.9797 29.1137 12.0473 28.3346 12.6386L22.4971 17.0688C22.1022 17.3685 21.5566 17.3701 21.16 17.0726L16.8378 13.8309C15.5408 12.8582 13.6897 13.1997 12.8252 14.5713Z" fill="#258c93"/>
</g>
<defs>
<clipPath id="clip0_74_13">
<rect width="37" height="37" fill="white"/>
</clipPath>
</defs>
</svg>
