<svg xmlns="http://www.w3.org/2000/svg" version="1.1" xmlns:xlink="http://www.w3.org/1999/xlink" xmlns:svgjs="http://svgjs.dev/svgjs" width="1000" height="527" viewBox="0 0 1000 527"><g transform="matrix(1,0,0,1,1.7511669301885036,0.0016459115306020067)"><svg viewBox="0 0 379 200" data-background-color="#ffffff" preserveAspectRatio="xMidYMid meet" height="527" width="1000" xmlns="http://www.w3.org/2000/svg" xmlns:xlink="http://www.w3.org/1999/xlink"><g id="tight-bounds" transform="matrix(1,0,0,1,0.13376969875560007,-0.0006246343569671353)"><svg viewBox="0 0 378.89662178628294 200" height="200" width="378.89662178628294"><g><svg viewBox="0 0 521.4989019136772 275.27239459412715" height="200" width="378.89662178628294"><g><rect width="5.488014603446577" height="184.43250437806518" x="106.12435693471598" y="45.41994510803099" fill="#258c93" opacity="1" stroke-width="0" stroke="transparent" fill-opacity="1" class="rect-o-0" data-fill-palette-color="primary" rx="1%" id="o-0" data-palette-color="#258c93"></rect></g><g transform="matrix(1,0,0,1,125.97890191367715,45.878732432354525)"><svg viewBox="0 0 395.52 183.5149297294181" height="183.5149297294181" width="395.52"><g><svg viewBox="0 0 395.52 183.5149297294181" height="183.5149297294181" width="395.52"><g><svg viewBox="0 0 395.52 131.53968109339408" height="131.53968109339408" width="395.52"><g transform="matrix(1,0,0,1,0,0)"><svg width="395.52" viewBox="1.1999993324279785 -36.14999771118164 242.65000915527344 77.30000305175781" height="131.53968109339408" data-palette-color="#2e7b03"><svg></svg><svg></svg><g class="undefined-text-0" data-fill-palette-color="primary" id="text-0"><path xmlns="http://www.w3.org/2000/svg" d="M20.5-32.4c1.233 1.533 2.65 3.507 4.25 5.92 1.6 2.42 2.717 4.03 3.35 4.83 0.633 0.8 1.143 1.2 1.53 1.2 0.38 0 0.72-0.217 1.02-0.65 0.3-0.433 1.4-2.1 3.3-5 1.9-2.9 3.467-5.11 4.7-6.63 1.233-1.513 2.217-2.287 2.95-2.32 0.733-0.033 1.683-0.05 2.85-0.05 1.167 0 2.533 0.033 4.1 0.1 1.567 0.067 2.61 0.477 3.13 1.23 0.513 0.747 0.82 1.803 0.92 3.17v0c0.2 3.5 0.3 8.14 0.3 13.92 0 5.787-0.15 10.347-0.45 13.68v0c-0.067 0.8-0.367 1.517-0.9 2.15-0.533 0.633-1.267 0.95-2.2 0.95v0c-2.033 0.033-4.29 0.05-6.77 0.05-2.487 0-4.463-0.05-5.93-0.15v0c-0.533-0.033-1.007-0.243-1.42-0.63-0.42-0.38-0.647-0.887-0.68-1.52v0l-0.3-8.25c-0.033-0.8-0.207-1.25-0.52-1.35-0.32-0.1-0.613 0.117-0.88 0.65v0c-1.767 3.133-3.967 6.633-6.6 10.5v0c-0.633 0.967-1.467 1.45-2.5 1.45-1.033 0-1.883-0.483-2.55-1.45v0c-1.167-1.667-3.15-5.2-5.95-10.6v0c-0.167-0.333-0.357-0.533-0.57-0.6-0.22-0.067-0.413 0.017-0.58 0.25-0.167 0.233-0.25 0.617-0.25 1.15v0l-0.25 8.25c-0.033 0.633-0.317 1.14-0.85 1.52-0.533 0.387-1.15 0.597-1.85 0.63v0h-4.95c-0.9-0.033-1.623-0.35-2.17-0.95-0.553-0.6-0.88-1.283-0.98-2.05v0c-0.267-2.967-0.4-7.573-0.4-13.82 0-6.253 0.083-10.847 0.25-13.78v0c0.1-1.4 0.417-2.483 0.95-3.25 0.533-0.767 1.483-1.15 2.85-1.15v0c7 0 10.783 0.05 11.35 0.15 0.567 0.1 1.467 0.917 2.7 2.45zM83.05 1v0c-4.033 0-7.683-0.527-10.95-1.58-3.267-1.047-5.917-2.453-7.95-4.22-2.033-1.767-3.583-3.743-4.65-5.93-1.067-2.18-1.6-4.453-1.6-6.82 0-2.367 0.543-4.643 1.63-6.83 1.08-2.18 2.63-4.153 4.65-5.92 2.013-1.767 4.653-3.183 7.92-4.25 3.267-1.067 6.85-1.6 10.75-1.6 3.9 0 7.35 0.483 10.35 1.45 3 0.967 5.417 2.283 7.25 3.95v0c3.733 3.4 5.6 7.433 5.6 12.1v0c0 2.367-0.507 4.683-1.52 6.95-1.02 2.267-2.47 4.323-4.35 6.17-1.887 1.853-4.313 3.37-7.28 4.55-2.967 1.187-6.25 1.847-9.85 1.98zM92.95-18.43c0-1.58-0.567-2.963-1.7-4.15-1.133-1.18-2.857-1.77-5.17-1.77-2.32 0-4.163 0.617-5.53 1.85-1.367 1.233-2.05 2.733-2.05 4.5 0 1.767 0.717 3.183 2.15 4.25 1.433 1.067 3.16 1.6 5.18 1.6 2.013 0 3.703-0.65 5.07-1.95 1.367-1.3 2.05-2.743 2.05-4.33zM144.95-35v0h5.35c1.133 0 1.927 0.183 2.38 0.55 0.447 0.367 0.687 1.117 0.72 2.25v0c0.2 5.067 0.3 10.517 0.3 16.35 0 5.833-0.117 10.1-0.35 12.8v0c-0.067 0.767-0.357 1.467-0.87 2.1-0.52 0.633-1.197 0.95-2.03 0.95v0h-8.35c-1.167 0-2.45-0.417-3.85-1.25v0c-7.733-4.567-12.6-7.35-14.6-8.35v0c-0.4-0.167-0.723-0.11-0.97 0.17-0.253 0.287-0.38 0.813-0.38 1.58v0 5.55c0 0.633-0.233 1.133-0.7 1.5v0c-0.7 0.567-2.5 0.85-5.4 0.85v0c-0.8 0-1.583-0.027-2.35-0.08-0.767-0.047-1.39-0.387-1.87-1.02-0.487-0.633-0.747-1.317-0.78-2.05v0c-0.1-4-0.15-9.027-0.15-15.08 0-6.047 0.017-9.987 0.05-11.82 0.033-1.833 0.25-3.127 0.65-3.88 0.4-0.747 1.167-1.12 2.3-1.12v0h5.5c1.133 0 2.3 0.317 3.5 0.95v0c10.333 5.367 16.367 8.483 18.1 9.35v0c0.567 0.267 1.017 0.3 1.35 0.1 0.333-0.2 0.5-0.567 0.5-1.1v0-7c0-0.667 0.177-1.217 0.53-1.65 0.347-0.433 0.82-0.65 1.42-0.65zM163 0c-0.933 0-1.723-0.31-2.37-0.93-0.653-0.613-1.07-1.63-1.25-3.05-0.187-1.413-0.28-5.663-0.28-12.75 0-7.08 0.117-11.703 0.35-13.87v0c0.267-2.8 1.45-4.233 3.55-4.3v0c2.4-0.067 12.35-0.1 29.85-0.1v0c1.967 0 2.95 1.25 2.95 3.75v0c0 1.967-0.867 2.95-2.6 2.95v0h-11c-0.7 0-1.257 0.233-1.67 0.7-0.42 0.467-0.63 1.067-0.63 1.8v0 3.6c0 1 0.45 1.5 1.35 1.5v0h9.1c0.533 0 0.943 0.05 1.23 0.15 0.28 0.1 0.537 0.39 0.77 0.87 0.233 0.487 0.35 1.28 0.35 2.38 0 1.1-0.19 1.833-0.57 2.2-0.387 0.367-1.013 0.55-1.88 0.55v0h-8.15c-0.833 0-1.407 0.207-1.72 0.62-0.32 0.42-0.48 1.063-0.48 1.93v0 2.45c0 1.433 0.683 2.15 2.05 2.15v0h12.45c0.6 0 1.133 0.173 1.6 0.52 0.467 0.353 0.7 1.12 0.7 2.3 0 1.187-0.283 2.247-0.85 3.18-0.567 0.933-1.233 1.4-2 1.4v0zM236.35-35h6.5c0.667 0 1 0.333 1 1v0c0 0.433-0.183 0.9-0.55 1.4v0l-11.2 17.75c0 2.7-0.083 6.633-0.25 11.8v0c-0.033 0.733-0.35 1.407-0.95 2.02-0.6 0.62-1.4 0.963-2.4 1.03v0c-1.9 0.133-4.183 0.2-6.85 0.2-2.667 0-5.117-0.067-7.35-0.2v0c-1-0.067-1.8-0.41-2.4-1.03-0.6-0.613-0.917-1.287-0.95-2.02v0c-0.067-3.367-0.1-6.867-0.1-10.5v0l-10.1-16.95c-0.5-0.767-0.75-1.4-0.75-1.9v0c0-1.667 0.817-2.5 2.45-2.5v0l17.1-0.1c0.967 0 1.69 0.15 2.17 0.45 0.487 0.3 1.063 0.917 1.73 1.85v0l3.05 6.55c0.533 0.733 0.973 1.1 1.32 1.1 0.353 0 0.78-0.3 1.28-0.9v0l5.1-8c0.567-0.7 1.283-1.05 2.15-1.05z" fill="#2e7b03" fill-rule="nonzero" stroke="none" stroke-width="1" stroke-linecap="butt" stroke-linejoin="miter" stroke-miterlimit="10" stroke-dasharray="" stroke-dashoffset="0" font-family="none" font-weight="none" font-size="none" text-anchor="none" style="mix-blend-mode: normal" data-fill-palette-color="primary" opacity="1"></path><path xmlns="http://www.w3.org/2000/svg" d="M20.65 41.15v0c-6 0-10.74-1.527-14.22-4.58-3.487-3.047-5.23-7.353-5.23-12.92v0c0-3.4 0.56-6.383 1.68-8.95 1.113-2.567 2.687-4.617 4.72-6.15v0c4.033-3.033 9.35-4.55 15.95-4.55v0c4.267 0 8.533 0.583 12.8 1.75v0c1.633 0.533 2.45 1.85 2.45 3.95v0c0 2.867-0.9 4.3-2.7 4.3v0c-0.3 0-1.283-0.133-2.95-0.4-1.667-0.267-2.833-0.4-3.5-0.4v0c-2.367 0-4.19 0.823-5.47 2.47-1.287 1.653-1.93 3.623-1.93 5.91 0 2.28 0.6 4.287 1.8 6.02 1.2 1.733 2.833 2.633 4.9 2.7v0c1.4 0.067 3.883 0.1 7.45 0.1v0c1.733 0 2.683 0.817 2.85 2.45v0c0.1 0.6 0.15 1.207 0.15 1.82 0 0.62-0.05 1.247-0.15 1.88v0c-0.2 1.2-1.133 2.073-2.8 2.62-1.667 0.553-4.067 1.023-7.2 1.41-3.133 0.38-6 0.57-8.6 0.57zM76.2 7.5v0l16.35 27.65c0.667 1.1 1 2.023 1 2.77 0 0.753-0.3 1.313-0.9 1.68-0.6 0.367-1.3 0.55-2.1 0.55v0h-16.1c-1.633 0-2.683-0.3-3.15-0.9v0c-0.133-0.2-0.317-0.55-0.55-1.05v0l-1.45-3.1c-0.433-0.967-1.45-1.517-3.05-1.65v0h-9.45c-0.7 0-1.233 0.067-1.6 0.2-0.367 0.133-0.667 0.433-0.9 0.9v0l-1.95 4.05c-0.333 0.6-0.7 1.007-1.1 1.22-0.4 0.22-0.983 0.33-1.75 0.33v0h-4.5c-1.3 0-2-0.467-2.1-1.4v0c-0.033-0.133-0.05-0.267-0.05-0.4v0c0-0.767 0.25-1.5 0.75-2.2v0l15.65-27.6c1.5-2.6 3.933-3.9 7.3-3.9v0h4c2.667 0 4.55 0.95 5.65 2.85zM60 20.3v0l-2.3 4.55c-0.133 0.3-0.2 0.567-0.2 0.8v0c0 0.867 0.417 1.3 1.25 1.3v0h4.55c0.7 0 1.183-0.177 1.45-0.53 0.267-0.347 0.4-0.653 0.4-0.92 0-0.267-0.05-0.533-0.15-0.8v0l-1.9-4.3c-0.4-0.867-0.917-1.3-1.55-1.3-0.633 0-1.15 0.4-1.55 1.2zM132.2 5.15v0h5.35c1.133 0 1.927 0.183 2.38 0.55 0.447 0.367 0.687 1.117 0.72 2.25v0c0.2 5.067 0.3 10.517 0.3 16.35 0 5.833-0.117 10.1-0.35 12.8v0c-0.067 0.767-0.357 1.467-0.87 2.1-0.52 0.633-1.197 0.95-2.03 0.95v0h-8.35c-1.167 0-2.45-0.417-3.85-1.25v0c-7.733-4.567-12.6-7.35-14.6-8.35v0c-0.4-0.167-0.723-0.11-0.97 0.17-0.253 0.287-0.38 0.813-0.38 1.58v0 5.55c0 0.633-0.233 1.133-0.7 1.5v0c-0.7 0.567-2.5 0.85-5.4 0.85v0c-0.8 0-1.583-0.027-2.35-0.08-0.767-0.047-1.39-0.387-1.87-1.02-0.487-0.633-0.747-1.317-0.78-2.05v0c-0.1-4-0.15-9.027-0.15-15.08 0-6.047 0.017-9.987 0.05-11.82 0.033-1.833 0.25-3.127 0.65-3.88 0.4-0.747 1.167-1.12 2.3-1.12v0h5.5c1.133 0 2.3 0.317 3.5 0.95v0c10.333 5.367 16.367 8.483 18.1 9.35v0c0.567 0.267 1.017 0.3 1.35 0.1 0.333-0.2 0.5-0.567 0.5-1.1v0-7c0-0.667 0.177-1.217 0.53-1.65 0.347-0.433 0.82-0.65 1.42-0.65z" fill="#2e7b03" fill-rule="nonzero" stroke="none" stroke-width="1" stroke-linecap="butt" stroke-linejoin="miter" stroke-miterlimit="10" stroke-dasharray="" stroke-dashoffset="0" font-family="none" font-weight="none" font-size="none" text-anchor="none" style="mix-blend-mode: normal" data-fill-palette-color="primary" opacity="1"></path></g></svg></g></svg></g><g transform="matrix(1,0,0,1,0,145.90621146890868)"><svg viewBox="0 0 218.13056591095466 37.60871826050943" height="37.60871826050943" width="218.13056591095466"><g transform="matrix(1,0,0,1,0,0)"><svg width="218.13056591095466" viewBox="4.699999809265137 -35 202.99000549316406 35" height="37.60871826050943" data-palette-color="#2e7b03"><path d="M6.75 0L5.85 0Q5.35 0 5.03-0.3 4.7-0.6 4.7-1.1L4.7-1.1 4.7-33.85Q4.7-34.4 5.03-34.7 5.35-35 5.85-35L5.85-35 7.1-35Q7.6-35 7.85-34.75 8.1-34.5 8.15-34.35L8.15-34.35 19.5-12.25 30.9-34.35Q31-34.5 31.23-34.75 31.45-35 31.95-35L31.95-35 33.15-35Q33.7-35 34-34.7 34.3-34.4 34.3-33.85L34.3-33.85 34.3-1.1Q34.3-0.6 34-0.3 33.7 0 33.15 0L33.15 0 32.25 0Q31.75 0 31.45-0.3 31.15-0.6 31.15-1.1L31.15-1.1 31.15-28.2 21.6-9.4Q21.4-8.9 21.03-8.65 20.65-8.4 20.05-8.4L20.05-8.4 18.95-8.4Q18.35-8.4 18-8.65 17.65-8.9 17.4-9.4L17.4-9.4 7.85-28.2 7.85-1.1Q7.85-0.6 7.55-0.3 7.25 0 6.75 0L6.75 0ZM42.2 0L41.2 0Q40.8 0 40.5-0.3 40.2-0.6 40.2-1L40.2-1Q40.2-1.25 40.3-1.55L40.3-1.55 52.95-34Q53.15-34.5 53.47-34.75 53.8-35 54.4-35L54.4-35 56.1-35Q56.7-35 57.02-34.75 57.35-34.5 57.55-34L57.55-34 70.2-1.55Q70.3-1.25 70.3-1L70.3-1Q70.3-0.6 70-0.3 69.7 0 69.3 0L69.3 0 68.3 0Q67.8 0 67.55-0.28 67.3-0.55 67.2-0.75L67.2-0.75 64.1-8.75 46.4-8.75 43.3-0.75Q43.25-0.55 42.97-0.28 42.7 0 42.2 0L42.2 0ZM55.25-31.45L47.6-11.75 62.9-11.75 55.25-31.45ZM78.2 0L77.3 0Q76.8 0 76.5-0.3 76.2-0.6 76.2-1.1L76.2-1.1 76.2-33.85Q76.2-34.4 76.5-34.7 76.8-35 77.3-35L77.3-35 78.2-35Q78.75-35 79.05-34.7 79.34-34.4 79.34-33.85L79.34-33.85 79.34-19.25 98.65-19.25 98.65-33.85Q98.65-34.4 98.95-34.7 99.25-35 99.75-35L99.75-35 100.65-35Q101.2-35 101.5-34.7 101.8-34.4 101.8-33.85L101.8-33.85 101.8-1.1Q101.8-0.6 101.5-0.3 101.2 0 100.65 0L100.65 0 99.75 0Q99.25 0 98.95-0.3 98.65-0.6 98.65-1.1L98.65-1.1 98.65-16.25 79.34-16.25 79.34-1.1Q79.34-0.6 79.05-0.3 78.75 0 78.2 0L78.2 0ZM113.24 0L112.29 0Q111.79 0 111.49-0.3 111.19-0.6 111.19-1.1L111.19-1.1 111.19-33.9Q111.19-34.4 111.49-34.7 111.79-35 112.29-35L112.29-35 113.24-35Q113.74-35 114.04-34.7 114.34-34.4 114.34-33.9L114.34-33.9 114.34-1.1Q114.34-0.6 114.04-0.3 113.74 0 113.24 0L113.24 0ZM125.74 0L124.84 0Q124.34 0 124.04-0.3 123.74-0.6 123.74-1.1L123.74-1.1 123.74-33.85Q123.74-34.4 124.04-34.7 124.34-35 124.84-35L124.84-35 125.74-35Q126.29-35 126.59-34.7 126.89-34.4 126.89-33.85L126.89-33.85 126.89-20.85 142.04-34.25Q142.24-34.4 142.69-34.7 143.14-35 143.94-35L143.94-35 144.74-35Q145.14-35 145.44-34.7 145.74-34.4 145.74-34L145.74-34Q145.74-33.6 145.49-33.35L145.49-33.35 128.54-18.25 146.54-1.7Q146.84-1.4 146.84-1L146.84-1Q146.84-0.6 146.54-0.3 146.24 0 145.84 0L145.84 0 144.99 0Q144.19 0 143.74-0.3 143.29-0.6 143.09-0.75L143.09-0.75 126.89-15.55 126.89-1.1Q126.89-0.6 126.59-0.3 126.29 0 125.74 0L125.74 0ZM173.49 0L153.59 0Q153.09 0 152.79-0.3 152.49-0.6 152.49-1.1L152.49-1.1 152.49-33.85Q152.49-34.4 152.79-34.7 153.09-35 153.59-35L153.59-35 173.09-35Q173.64-35 173.94-34.7 174.24-34.4 174.24-33.85L174.24-33.85 174.24-33.1Q174.24-32.6 173.94-32.3 173.64-32 173.09-32L173.09-32 155.64-32 155.64-19.25 171.99-19.25Q172.54-19.25 172.84-18.95 173.14-18.65 173.14-18.1L173.14-18.1 173.14-17.35Q173.14-16.85 172.84-16.55 172.54-16.25 171.99-16.25L171.99-16.25 155.64-16.25 155.64-3 173.49-3Q174.04-3 174.34-2.7 174.64-2.4 174.64-1.85L174.64-1.85 174.64-1.1Q174.64-0.6 174.34-0.3 174.04 0 173.49 0L173.49 0ZM184.09 0L183.19 0Q182.69 0 182.39-0.3 182.09-0.6 182.09-1.1L182.09-1.1 182.09-33.85Q182.09-34.4 182.39-34.7 182.69-35 183.19-35L183.19-35 184.09-35Q184.64-35 184.94-34.7 185.24-34.4 185.24-33.85L185.24-33.85 185.24-19.25 204.54-19.25 204.54-33.85Q204.54-34.4 204.84-34.7 205.14-35 205.64-35L205.64-35 206.54-35Q207.09-35 207.39-34.7 207.69-34.4 207.69-33.85L207.69-33.85 207.69-1.1Q207.69-0.6 207.39-0.3 207.09 0 206.54 0L206.54 0 205.64 0Q205.14 0 204.84-0.3 204.54-0.6 204.54-1.1L204.54-1.1 204.54-16.25 185.24-16.25 185.24-1.1Q185.24-0.6 184.94-0.3 184.64 0 184.09 0L184.09 0Z" opacity="1" transform="matrix(1,0,0,1,0,0)" fill="#258c93" class="undefined-text-1" data-fill-palette-color="secondary" id="text-1"></path></svg></g></svg></g></svg></g></svg></g><g><svg viewBox="0 0 91.75782655920138 275.27239459412715" height="275.27239459412715" width="91.75782655920138"><g><svg xmlns="http://www.w3.org/2000/svg" viewBox="21.999950408935547 2 20.000080108642578 60.000003814697266" x="0" y="0" height="275.27239459412715" width="91.75782655920138" class="icon-icon-0" data-fill-palette-color="accent" id="icon-0"><path d="M42 28.666V22.6a1.001 1.001 0 0 0-0.723-0.961L35 19.826V15.985A7.986 7.986 0 0 0 38 9.5C38 5.364 35.309 2 32 2s-6 3.364-6 7.5a7.986 7.986 0 0 0 3 6.485v3.841l-6.277 1.813A1.001 1.001 0 0 0 22 22.6v6.066a1 1 0 0 0 0.244 0.655l3.022 3.491-2.835 1.966a1 1 0 0 0-0.385 1.122l3 9.534a1 1 0 0 0 0.811 0.689L29 46.577V57H26a1 1 0 0 0-1 1v2H24a1 1 0 0 0 0 2h2a1 1 0 0 0 1-1V59H37v2a1 1 0 0 0 1 1h2a1 1 0 0 0 0-2H39V58a1 1 0 0 0-1-1H35V46.577l3.143-0.454a1 1 0 0 0 0.811-0.689l3-9.534a1 1 0 0 0-0.385-1.122l-2.835-1.966 3.022-3.491A1 1 0 0 0 42 28.666ZM28 9.5C28 6.467 29.794 4 32 4s4 2.467 4 5.5S34.206 15 32 15 28 12.533 28 9.5Zm3 7.387a4.485 4.485 0 0 0 2 0v2.361l-0.723-0.209a1.009 1.009 0 0 0-0.554 0L31 19.248ZM33 57H31V46.866l0.857 0.124a0.992 0.992 0 0 0 0.286 0L33 46.866Zm7-28.706l-3.506 4.052a0.999 0.999 0 0 0 0.187 1.476l3.144 2.18-2.591 8.231L32 44.99l-5.234-0.757-2.591-8.231 3.144-2.18a0.999 0.999 0 0 0 0.187-1.476L24 28.294V23.352l8-2.311 8 2.311Z" fill="#258c93" data-fill-palette-color="accent"></path></svg></g></svg></g></svg></g><defs></defs></svg><rect width="378.89662178628294" height="200" fill="#258c93" stroke="#258c93" visibility="hidden"></rect></g></svg></g></svg>