<svg width="152" height="28" viewBox="0 0 152 28" fill="none" xmlns="http://www.w3.org/2000/svg">
<path d="M14.0205 0.015625L17.0503 9.34033H26.8548L18.9228 15.1033L21.9526 24.428L14.0205 18.665L6.08841 24.428L9.11819 15.1033L1.18612 9.34033H10.9907L14.0205 0.015625Z" fill="#FFC042"/>
<path d="M45.0102 0.015625L48.04 9.34033H57.8446L49.9125 15.1033L52.9423 24.428L45.0102 18.665L37.0782 24.428L40.1079 15.1033L32.1759 9.34033H41.9804L45.0102 0.015625Z" fill="#FFC042"/>
<path d="M76 0.015625L79.0298 9.34033H88.8343L80.9023 15.1033L83.932 24.428L76 18.665L68.0679 24.428L71.0977 15.1033L63.1656 9.34033H72.9702L76 0.015625Z" fill="#FFC042"/>
<path d="M106.99 0.015625L110.02 9.34033H119.824L111.892 15.1033L114.922 24.428L106.99 18.665L99.0576 24.428L102.087 15.1033L94.1554 9.34033H103.96L106.99 0.015625Z" fill="#FFC042"/>
<path d="M137.979 0.015625L141.009 9.34033H150.814L142.882 15.1033L145.912 24.428L137.979 18.665L130.047 24.428L133.077 15.1033L125.145 9.34033H134.95L137.979 0.015625Z" fill="#D0CFD4"/>
</svg>
