<svg width="62" height="62" viewBox="0 0 62 62" fill="none" xmlns="http://www.w3.org/2000/svg">
<g filter="url(#filter0_d_480_72)">
<circle cx="31" cy="31" r="20" fill="white"/>
</g>
<path d="M28.6962 15.5927V15.5927C28.6962 16.8576 27.8068 17.9481 26.5678 18.2025L24.8481 18.5556C22.608 19.0156 21 20.9872 21 23.2741V32.5803H24.6076M24.6076 32.5803L25.024 45.0628C25.06 46.143 25.9461 47.0001 27.0269 47.0001V47.0001C27.994 47.0001 28.8231 46.3094 28.9979 45.3583L30.6203 36.5309L31.6337 45.3537C31.7414 46.2919 32.5356 47.0001 33.48 47.0001V47.0001C34.4465 47.0001 35.2517 46.2592 35.332 45.2961L36.3924 32.5803H40V23.1597C40 20.9213 38.4692 18.9732 36.2942 18.4439L35.2958 18.201C34.1921 17.9324 33.322 17.0843 33.0253 15.9877V15.9877M24.6076 32.5803L25.0886 24.0865" stroke="#3C4151"/>
<path d="M29.8781 16.9594C29.8175 16.956 29.7565 16.9524 29.695 16.9486C28.4023 16.7068 26.8832 16.0421 29.2101 15.3169C29.3658 15.2683 29.5259 15.226 29.6892 15.1895C33.6986 14.2931 33.9801 17.1887 29.8781 16.9594Z" stroke="#3C4151"/>
<path d="M36.6327 32.5803L35.9111 24.4816" stroke="#3C4151"/>
<path d="M30.5123 16.5803V29.8424M30.5123 29.8424V31.9877H24.8477H30.3793M30.5123 29.8424L30.3793 31.9877M36.6325 31.9877H30.3793" stroke="#3C4151"/>
<defs>
<filter id="filter0_d_480_72" x="0" y="0" width="62" height="62" filterUnits="userSpaceOnUse" color-interpolation-filters="sRGB">
<feFlood flood-opacity="0" result="BackgroundImageFix"/>
<feColorMatrix in="SourceAlpha" type="matrix" values="0 0 0 0 0 0 0 0 0 0 0 0 0 0 0 0 0 0 127 0" result="hardAlpha"/>
<feOffset/>
<feGaussianBlur stdDeviation="5.5"/>
<feComposite in2="hardAlpha" operator="out"/>
<feColorMatrix type="matrix" values="0 0 0 0 0 0 0 0 0 0 0 0 0 0 0 0 0 0 0.25 0"/>
<feBlend mode="normal" in2="BackgroundImageFix" result="effect1_dropShadow_480_72"/>
<feBlend mode="normal" in="SourceGraphic" in2="effect1_dropShadow_480_72" result="shape"/>
</filter>
</defs>
</svg>
