<svg width="30" height="30" viewBox="0 0 30 30" fill="none" xmlns="http://www.w3.org/2000/svg">
<path d="M10.3125 10.3125C10.8303 10.3125 11.25 10.7322 11.25 11.25V22.5C11.25 23.0177 10.8303 23.4375 10.3125 23.4375C9.79474 23.4375 9.375 23.0177 9.375 22.5V11.25C9.375 10.7322 9.79474 10.3125 10.3125 10.3125Z" fill="#A0A2A9"/>
<path d="M15 10.3125C15.5178 10.3125 15.9375 10.7322 15.9375 11.25V22.5C15.9375 23.0177 15.5178 23.4375 15 23.4375C14.4822 23.4375 14.0625 23.0177 14.0625 22.5V11.25C14.0625 10.7322 14.4822 10.3125 15 10.3125Z" fill="#A0A2A9"/>
<path d="M20.625 11.25C20.625 10.7322 20.2052 10.3125 19.6875 10.3125C19.1698 10.3125 18.75 10.7322 18.75 11.25V22.5C18.75 23.0177 19.1698 23.4375 19.6875 23.4375C20.2052 23.4375 20.625 23.0177 20.625 22.5V11.25Z" fill="#A0A2A9"/>
<path fill-rule="evenodd" clip-rule="evenodd" d="M27.1875 5.625C27.1875 6.66052 26.3481 7.5 25.3125 7.5H24.375V24.375C24.375 26.4461 22.6961 28.125 20.625 28.125H9.375C7.30393 28.125 5.625 26.4461 5.625 24.375V7.5H4.6875C3.65197 7.5 2.8125 6.66052 2.8125 5.625V3.75C2.8125 2.71447 3.65197 1.875 4.6875 1.875H11.25C11.25 0.839466 12.0895 0 13.125 0H16.875C17.9105 0 18.75 0.839466 18.75 1.875H25.3125C26.3481 1.875 27.1875 2.71447 27.1875 3.75V5.625ZM7.72131 7.5L7.5 7.61066V24.375C7.5 25.4106 8.33948 26.25 9.375 26.25H20.625C21.6606 26.25 22.5 25.4106 22.5 24.375V7.61066L22.2787 7.5H7.72131ZM4.6875 5.625V3.75H25.3125V5.625H4.6875Z" fill="#A0A2A9"/>
</svg>
