<svg width="37" height="37" viewBox="0 0 37 37" fill="none" xmlns="http://www.w3.org/2000/svg">
<g clip-path="url(#clip0_74_5)">
<path d="M31.453 5.37989C27.9984 1.90758 23.3919 0 18.4868 0C8.3863 0 0.158232 8.22808 0.149441 18.3286C0.149441 21.5636 0.993346 24.7107 2.59324 27.4972L0 37L9.72249 34.4507C12.4036 35.9099 15.4188 36.6837 18.4868 36.6837H18.4956C28.5961 36.6837 36.824 28.4555 36.8328 18.3462C36.824 13.4498 34.9164 8.84344 31.453 5.37989ZM18.4868 33.5805C15.7441 33.5805 13.0629 32.8419 10.7246 31.453L10.1708 31.1191L4.40413 32.631L5.9425 27.0049L5.58207 26.4247C4.05249 23.9987 3.25255 21.1943 3.25255 18.3198C3.25255 9.93348 10.0917 3.09433 18.4956 3.09433C22.5657 3.09433 26.3896 4.68543 29.273 7.56C32.1474 10.4433 33.7299 14.2673 33.7299 18.3374C33.7211 26.7501 26.8819 33.5805 18.4868 33.5805ZM26.8467 22.1701C26.3896 21.9416 24.1393 20.8339 23.7172 20.6757C23.2952 20.5263 22.9876 20.4471 22.6887 20.9043C22.381 21.3614 21.502 22.3987 21.2383 22.6976C20.9745 23.0052 20.702 23.0404 20.2449 22.8118C19.7878 22.5833 18.311 22.0998 16.5616 20.535C15.1991 19.3219 14.2848 17.8187 14.0123 17.3616C13.7486 16.9045 13.986 16.6583 14.2145 16.4298C14.4167 16.2276 14.6716 15.8936 14.9002 15.6298C15.1287 15.3661 15.2079 15.1727 15.3573 14.8651C15.5067 14.5574 15.4364 14.2937 15.3221 14.0651C15.2079 13.8365 14.2936 11.5773 13.9068 10.6631C13.5376 9.76645 13.1596 9.88952 12.8783 9.88073C12.6146 9.86316 12.3069 9.86316 11.9993 9.86316C11.6916 9.86316 11.1993 9.97742 10.7774 10.4346C10.3554 10.8917 9.17746 11.9993 9.17746 14.2585C9.17746 16.5177 10.8213 18.689 11.0499 18.9967C11.2784 19.3044 14.2761 23.9284 18.8736 25.915C19.9636 26.3896 20.8163 26.671 21.4844 26.8819C22.5832 27.2336 23.5766 27.1809 24.3677 27.0664C25.2467 26.9346 27.0752 25.959 27.4621 24.8864C27.84 23.8139 27.84 22.8997 27.7257 22.7063C27.6115 22.513 27.3039 22.3987 26.8467 22.1701Z" fill="#258c93"/>
</g>
<defs>
<clipPath id="clip0_74_5">
<rect width="37" height="37" fill="white"/>
</clipPath>
</defs>
</svg>
